<?xml version="1.0" encoding="UTF-8"?>
<svg width="16px" height="16px" viewBox="0 0 16 16" version="1.1" xmlns="http://www.w3.org/2000/svg" xmlns:xlink="http://www.w3.org/1999/xlink">
    <!-- Generator: Sketch 44.1 (41455) - http://www.bohemiancoding.com/sketch -->
    <title>twitter-image</title>
    <desc>Created with Sketch.</desc>
    <defs></defs>
    <g id="Page-1" stroke="none" stroke-width="1" fill="none" fill-rule="evenodd">
        <g id="twitter-newui-iconkit" transform="translate(-544.000000, -44.000000)" fill="#AAB8C3">
            <path d="M545.6875,57.8867188 L553.914062,57.8867188 L549.203125,53.1933594 L545.142578,57.3417969 C545.142578,57.4941414 545.195312,57.6230463 545.300781,57.7285156 C545.406251,57.8339849 545.535155,57.8867188 545.6875,57.8867188 Z M557.324219,57.8867188 C557.476563,57.8867188 557.608398,57.8310552 557.719727,57.7197266 C557.831055,57.6083979 557.886719,57.4765633 557.886719,57.3242188 L557.886719,54.546875 L554.599609,51.2597656 L551.751953,54.1425781 L555.496094,57.8867188 L557.324219,57.8867188 Z M549.15918,47.5859375 C549.481447,47.5859375 549.753905,47.6972645 549.976562,47.9199219 C550.19922,48.1425792 550.310547,48.4150375 550.310547,48.7373047 C550.310547,49.0595719 550.19922,49.3320301 549.976562,49.5546875 C549.753905,49.7773449 549.481447,49.8886719 549.15918,49.8886719 C548.836912,49.8886719 548.564454,49.7773449 548.341797,49.5546875 C548.11914,49.3320301 548.007812,49.0595719 548.007812,48.7373047 C548.007812,48.4150375 548.11914,48.1425792 548.341797,47.9199219 C548.564454,47.6972645 548.836912,47.5859375 549.15918,47.5859375 Z M557.324219,45.125 L545.6875,45.125 C545.535155,45.125 545.403321,45.1806635 545.291992,45.2919922 C545.180664,45.4033209 545.125,45.5351555 545.125,45.6875 L545.125,55.7421875 L548.798828,51.9980469 C549.062501,51.7343737 549.326171,51.7343737 549.589844,51.9980469 L550.943359,53.3515625 L554.195312,50.0644531 C554.312501,49.947265 554.444335,49.8886719 554.59082,49.8886719 C554.737305,49.8886719 554.86914,49.947265 554.986328,50.0644531 L557.886719,52.9472656 L557.886719,45.6875 C557.886719,45.5351555 557.831055,45.4033209 557.719727,45.2919922 C557.608398,45.1806635 557.476563,45.125 557.324219,45.125 Z M545.6875,44 L557.324219,44 C557.792971,44 558.191405,44.1640609 558.519531,44.4921875 C558.847658,44.8203141 559.011719,45.2187477 559.011719,45.6875 L559.011719,57.3242188 C559.011719,57.7929711 558.847658,58.1914046 558.519531,58.5195312 C558.191405,58.8476579 557.792971,59.0117188 557.324219,59.0117188 L545.6875,59.0117188 C545.218748,59.0117188 544.820314,58.8476579 544.492188,58.5195312 C544.164061,58.1914046 544,57.7929711 544,57.3242188 L544,45.6875 C544,45.2187477 544.164061,44.8203141 544.492188,44.4921875 C544.820314,44.1640609 545.218748,44 545.6875,44 Z" id="twitter-image"></path>
        </g>
    </g>
</svg>