<?xml version="1.0" encoding="UTF-8"?>
<svg width="16px" height="16px" viewBox="0 0 16 16" version="1.1" xmlns="http://www.w3.org/2000/svg" xmlns:xlink="http://www.w3.org/1999/xlink">
    <!-- Generator: Sketch 44.1 (41455) - http://www.bohemiancoding.com/sketch -->
    <title>twitter-verified</title>
    <desc>Created with Sketch.</desc>
    <defs></defs>
    <g id="Page-1" stroke="none" stroke-width="1" fill="none" fill-rule="evenodd">
        <g id="twitter-newui-iconkit" transform="translate(-43.000000, -194.000000)" fill="#AAB8C3">
            <path d="M47.6933594,202.499023 C47.6933594,202.657227 47.7460932,202.789062 47.8515625,202.894531 L49.6621094,204.705078 C49.8085945,204.822266 49.966796,204.880859 50.1367188,204.880859 C50.3007821,204.880859 50.4355463,204.79297 50.5410156,204.617188 L53.7929688,199.748047 C53.8750004,199.61914 53.9013673,199.478516 53.8720703,199.326172 C53.8427733,199.173827 53.7636725,199.056641 53.6347656,198.974609 C53.5058587,198.892578 53.3652351,198.863281 53.2128906,198.886719 C53.0605461,198.910156 52.9375005,198.986327 52.84375,199.115234 L49.9785156,203.421875 L48.6601562,202.103516 C48.5429682,201.986328 48.4082039,201.930664 48.2558594,201.936523 C48.1035149,201.942383 47.9716802,201.998046 47.8603516,202.103516 C47.7490229,202.208985 47.6933594,202.34082 47.6933594,202.499023 Z M58.75,202.217773 C58.75,202.786136 58.6181654,203.304685 58.3544922,203.773438 C58.090819,204.24219 57.7363304,204.605467 57.2910156,204.863281 C57.3027344,204.945313 57.3085938,205.074218 57.3085938,205.25 C57.3085938,206.082035 57.0302762,206.791013 56.4736328,207.376953 C55.9169894,207.962894 55.2460977,208.255859 54.4609375,208.255859 C54.1093732,208.255859 53.7753922,208.191407 53.4589844,208.0625 C53.2128894,208.566409 52.8584008,208.973631 52.3955078,209.28418 C51.9326149,209.594728 51.4228543,209.75 50.8662109,209.75 C50.3095675,209.75 49.8027367,209.597658 49.3457031,209.292969 C48.8886696,208.98828 48.5371106,208.578128 48.2910156,208.0625 C47.9746078,208.191407 47.6406268,208.255859 47.2890625,208.255859 C46.5039023,208.255859 45.8300809,207.962894 45.2675781,207.376953 C44.7050753,206.791013 44.4238281,206.082035 44.4238281,205.25 C44.4238281,205.15625 44.4355468,205.027345 44.4589844,204.863281 C44.0136696,204.605467 43.659181,204.24219 43.3955078,203.773438 C43.1318346,203.304685 43,202.786136 43,202.217773 C43,201.649411 43.1464829,201.122073 43.4394531,200.635742 C43.7324233,200.149412 44.1249975,199.789064 44.6171875,199.554688 C44.4882806,199.203123 44.4238281,198.851564 44.4238281,198.5 C44.4238281,197.667965 44.7050753,196.958987 45.2675781,196.373047 C45.8300809,195.787106 46.5039023,195.494141 47.2890625,195.494141 C47.6406268,195.494141 47.9746078,195.558593 48.2910156,195.6875 C48.5371106,195.183591 48.8915992,194.776369 49.3544922,194.46582 C49.8173851,194.155272 50.324216,194 50.875,194 C51.425784,194 51.9326149,194.155272 52.3955078,194.46582 C52.8584008,194.776369 53.2128894,195.183591 53.4589844,195.6875 C53.7753922,195.558593 54.1093732,195.494141 54.4609375,195.494141 C55.2460977,195.494141 55.9169894,195.787106 56.4736328,196.373047 C57.0302762,196.958987 57.3085938,197.667965 57.3085938,198.5 C57.3085938,198.886721 57.2500006,199.23828 57.1328125,199.554688 C57.6250025,199.789064 58.0175767,200.149412 58.3105469,200.635742 C58.6035171,201.122073 58.75,201.649411 58.75,202.217773 Z" id="twitter-verified"></path>
        </g>
    </g>
</svg>