<?xml version="1.0" encoding="UTF-8"?>
<svg width="16px" height="16px" viewBox="0 0 16 16" version="1.1" xmlns="http://www.w3.org/2000/svg" xmlns:xlink="http://www.w3.org/1999/xlink">
    <!-- Generator: Sketch 44.1 (41455) - http://www.bohemiancoding.com/sketch -->
    <title>twitter-switch</title>
    <desc>Created with Sketch.</desc>
    <defs></defs>
    <g id="Page-1" stroke="none" stroke-width="1" fill="none" fill-rule="evenodd">
        <g id="twitter-newui-iconkit" transform="translate(-293.000000, -94.000000)" fill="#AAB8C3">
            <path d="M306.886719,107.324219 L306.886719,98.0078125 C306.886719,97.855468 306.831055,97.7236334 306.719727,97.6123047 C306.608398,97.500976 306.476563,97.4453125 306.324219,97.4453125 L304.917969,97.4453125 L304.917969,104.230469 C304.917969,104.699221 304.753908,105.097655 304.425781,105.425781 C304.097655,105.753908 303.699221,105.917969 303.230469,105.917969 L297.21875,105.917969 L297.21875,107.324219 C297.21875,107.476563 297.274414,107.608398 297.385742,107.719727 C297.497071,107.831055 297.628905,107.886719 297.78125,107.886719 L306.324219,107.886719 C306.476563,107.886719 306.608398,107.831055 306.719727,107.719727 C306.831055,107.608398 306.886719,107.476563 306.886719,107.324219 Z M304.917969,96.3203125 L306.324219,96.3203125 C306.792971,96.3203125 307.191405,96.4843734 307.519531,96.8125 C307.847658,97.1406266 308.011719,97.5390602 308.011719,98.0078125 L308.011719,107.324219 C308.011719,107.792971 307.847658,108.191405 307.519531,108.519531 C307.191405,108.847658 306.792971,109.011719 306.324219,109.011719 L297.78125,109.011719 C297.312498,109.011719 296.914064,108.847658 296.585938,108.519531 C296.257811,108.191405 296.09375,107.792971 296.09375,107.324219 L296.09375,105.917969 L294.6875,105.917969 C294.218748,105.917969 293.820314,105.753908 293.492188,105.425781 C293.164061,105.097655 293,104.699221 293,104.230469 L293,95.6875 C293,95.2187477 293.164061,94.8203141 293.492188,94.4921875 C293.820314,94.1640609 294.218748,94 294.6875,94 L303.230469,94 C303.699221,94 304.097655,94.1640609 304.425781,94.4921875 C304.753908,94.8203141 304.917969,95.2187477 304.917969,95.6875 L304.917969,96.3203125 Z" id="twitter-switch"></path>
        </g>
    </g>
</svg>