<?xml version="1.0" encoding="UTF-8"?>
<svg width="17px" height="16px" viewBox="0 0 17 16" version="1.1" xmlns="http://www.w3.org/2000/svg" xmlns:xlink="http://www.w3.org/1999/xlink">
    <!-- Generator: Sketch 44.1 (41455) - http://www.bohemiancoding.com/sketch -->
    <title>twitter-promoted</title>
    <desc>Created with Sketch.</desc>
    <defs></defs>
    <g id="Page-1" stroke="none" stroke-width="1" fill="none" fill-rule="evenodd">
        <g id="twitter-newui-iconkit" transform="translate(-43.000000, -244.000000)" fill="#AAB8C3">
            <path d="M55.375,252.630859 L55.375,248.394531 C55.375,248.20703 55.3105475,248.051758 55.1816406,247.928711 C55.0527337,247.805663 54.8945322,247.744141 54.7070312,247.744141 L50.4707031,247.744141 C50.294921,247.744141 50.1425788,247.805663 50.0136719,247.928711 C49.884765,248.051758 49.8203125,248.20703 49.8203125,248.394531 C49.8203125,248.582032 49.884765,248.737304 50.0136719,248.860352 C50.1425788,248.983399 50.294921,249.044922 50.4707031,249.044922 L53.125,249.044922 L47.4648438,254.705078 C47.3359369,254.833985 47.2714844,254.989257 47.2714844,255.170898 C47.2714844,255.35254 47.3359369,255.507812 47.4648438,255.636719 C47.5937506,255.765626 47.7490225,255.830078 47.9306641,255.830078 C48.1123056,255.830078 48.2675775,255.765626 48.3964844,255.636719 L54.0566406,249.976562 L54.0566406,252.630859 C54.0566406,252.81836 54.1210931,252.976562 54.25,253.105469 C54.3789069,253.234376 54.5341788,253.298828 54.7158203,253.298828 C54.8974618,253.298828 55.0527337,253.234376 55.1816406,253.105469 C55.3105475,252.976562 55.375,252.81836 55.375,252.630859 Z M44.6875,244 L57.8007812,244 C58.2695336,244 58.6679671,244.164061 58.9960938,244.492188 C59.3242204,244.820314 59.4882812,245.218748 59.4882812,245.6875 L59.4882812,257.324219 C59.4882812,257.792971 59.3242204,258.191405 58.9960938,258.519531 C58.6679671,258.847658 58.2695336,259.011719 57.8007812,259.011719 L44.6875,259.011719 C44.2187477,259.011719 43.8203141,258.847658 43.4921875,258.519531 C43.1640609,258.191405 43,257.792971 43,257.324219 L43,245.6875 C43,245.218748 43.1640609,244.820314 43.4921875,244.492188 C43.8203141,244.164061 44.2187477,244 44.6875,244 Z" id="twitter-promoted"></path>
        </g>
    </g>
</svg>