<?xml version="1.0" encoding="UTF-8"?>
<svg width="16px" height="16px" viewBox="0 0 16 16" version="1.1" xmlns="http://www.w3.org/2000/svg" xmlns:xlink="http://www.w3.org/1999/xlink">
    <!-- Generator: Sketch 44.1 (41455) - http://www.bohemiancoding.com/sketch -->
    <title>twitter-globe</title>
    <desc>Created with Sketch.</desc>
    <defs></defs>
    <g id="Page-1" stroke="none" stroke-width="1" fill="none" fill-rule="evenodd">
        <g id="twitter-newui-iconkit" transform="translate(-393.000000, -194.000000)" fill="#AAB8C3">
            <path d="M407.255859,203.632812 C407.361329,203.632812 407.43164,203.591797 407.466797,203.509766 C407.607423,203.123045 407.677734,202.578129 407.677734,201.875 C407.677734,199.835927 406.886727,198.119148 405.304688,196.724609 C405.152343,196.595702 404.709965,196.484375 403.977539,196.390625 C403.245114,196.296875 402.796876,196.314452 402.632812,196.443359 C402.45703,196.619142 402.380859,196.824218 402.404297,197.058594 C402.404297,197.09375 402.644529,197.325193 403.125,197.75293 C403.605471,198.180666 403.839844,198.447265 403.828125,198.552734 C403.816406,198.658204 403.669923,198.869139 403.388672,199.185547 C403.10742,199.501955 402.966797,199.692382 402.966797,199.756836 C402.966797,199.821289 403.089843,199.967772 403.335938,200.196289 C403.582032,200.424806 403.754882,200.565429 403.854492,200.618164 C403.954102,200.670899 404.291013,200.811522 404.865234,201.040039 C405.439456,201.268556 405.761718,201.412109 405.832031,201.470703 C406.054689,201.681642 406.447263,202.349604 407.009766,203.474609 C407.06836,203.580079 407.15039,203.632812 407.255859,203.632812 Z M399.117188,207.728516 C399.175782,207.728516 399.322264,207.491213 399.556641,207.016602 C399.791017,206.54199 400.031249,206.046878 400.277344,205.53125 C400.523439,205.015622 400.666992,204.725586 400.708008,204.661133 C400.749024,204.596679 400.842773,204.491212 400.989258,204.344727 C401.135743,204.198241 401.293944,204.045899 401.463867,203.887695 C401.63379,203.729491 401.745117,203.626953 401.797852,203.580078 C401.850586,203.533203 401.879883,203.325197 401.885742,202.956055 C401.891602,202.586912 401.853516,202.326173 401.771484,202.173828 C401.701172,202.021484 401.425784,201.728518 400.945312,201.294922 C400.464841,200.861326 400.177735,200.635742 400.083984,200.618164 C399.990234,200.600586 399.662112,200.624023 399.099609,200.688477 C398.537107,200.75293 398.129884,200.75586 397.87793,200.697266 C397.625975,200.638672 397.078129,200.292972 396.234375,199.660156 L395.8125,199.34375 C396.457034,199.320312 396.811523,199.288086 396.875977,199.24707 C396.94043,199.206054 397.051757,198.995119 397.209961,198.614258 C397.368165,198.233397 397.479492,198.010743 397.543945,197.946289 C397.608399,197.881836 397.678711,197.826172 397.754883,197.779297 C397.831055,197.732422 397.96289,197.66211 398.150391,197.568359 C398.337892,197.474609 398.513671,197.38379 398.677734,197.295898 C398.841798,197.208007 399.25488,197.01758 399.916992,196.724609 C400.579105,196.431639 400.933594,196.25586 400.980469,196.197266 C401.027344,196.080078 401.041992,195.916017 401.024414,195.705078 C400.989258,195.29492 400.916016,195.089844 400.804688,195.089844 L400.769531,195.089844 C399.281243,195.101563 397.951178,195.55273 396.779297,196.443359 C395.607416,197.333989 394.80469,198.476556 394.371094,199.871094 C395.009769,200.076173 395.613278,200.295897 396.181641,200.530273 C396.744143,200.770509 397.042969,200.922851 397.078125,200.987305 C397.113281,201.051758 397.075196,201.212889 396.963867,201.470703 C396.852539,201.728517 396.793945,201.886718 396.788086,201.945312 C396.782227,202.003907 396.832031,202.194334 396.9375,202.516602 C397.042969,202.838869 397.11914,203.032226 397.166016,203.09668 C397.212891,203.161133 397.376952,203.292968 397.658203,203.492188 C397.939455,203.691407 398.103515,203.826172 398.150391,203.896484 C398.197266,203.966797 398.276367,204.502925 398.387695,205.504883 C398.499024,206.506841 398.572265,207.051757 398.607422,207.139648 C398.642578,207.22754 398.721679,207.347655 398.844727,207.5 C398.967774,207.652345 399.058593,207.728516 399.117188,207.728516 Z M400.875,194 C403.04298,194 404.897453,194.7705 406.438477,196.311523 C407.9795,197.852547 408.75,199.70702 408.75,201.875 C408.75,204.04298 407.9795,205.897453 406.438477,207.438477 C404.897453,208.9795 403.04298,209.75 400.875,209.75 C398.70702,209.75 396.852547,208.9795 395.311523,207.438477 C393.7705,205.897453 393,204.04298 393,201.875 C393,199.70702 393.7705,197.852547 395.311523,196.311523 C396.852547,194.7705 398.70702,194 400.875,194 Z" id="twitter-globe"></path>
        </g>
    </g>
</svg>