<?xml version="1.0" encoding="UTF-8"?>
<svg width="15px" height="16px" viewBox="0 0 15 16" version="1.1" xmlns="http://www.w3.org/2000/svg" xmlns:xlink="http://www.w3.org/1999/xlink">
    <!-- Generator: Sketch 44.1 (41455) - http://www.bohemiancoding.com/sketch -->
    <title>twitter-alert-2</title>
    <desc>Created with Sketch.</desc>
    <defs></defs>
    <g id="Page-1" stroke="none" stroke-width="1" fill="none" fill-rule="evenodd">
        <g id="twitter-newui-iconkit" transform="translate(-143.000000, -94.000000)" fill="#AAB8C3">
            <path d="M150.508985,107.869141 C151.059769,107.869141 151.531444,107.681642 151.924024,107.306641 C152.316604,106.931639 152.536328,106.468753 152.583203,105.917969 L148.434766,105.917969 C148.481641,106.468753 148.701366,106.931639 149.093946,107.306641 C149.486526,107.681642 149.958201,107.869141 150.508985,107.869141 Z M157.452344,105.917969 L154.077344,105.917969 C154.042188,106.878911 153.67891,107.693356 152.9875,108.361328 C152.296091,109.0293 151.469927,109.363281 150.508985,109.363281 C149.548042,109.363281 148.721879,109.0293 148.030469,108.361328 C147.339059,107.693356 146.975782,106.878911 146.940625,105.917969 L143.565625,105.917969 C143.296093,105.917969 143.120313,105.789064 143.038282,105.53125 C142.95625,105.273436 143.006054,105.077149 143.187696,104.942383 C143.580276,104.655272 143.949413,104.122074 144.295118,103.342773 C144.640822,102.569332 144.813672,101.582037 144.813672,100.380859 C144.790235,98.4238183 145.376166,96.8418029 146.571485,95.6347656 C147.637896,94.568354 148.950383,94.0234376 150.508985,94 C152.067586,94.0234376 153.380073,94.568354 154.446485,95.6347656 C155.641803,96.8418029 156.227735,98.4238183 156.204297,100.380859 C156.175,101.939461 156.500192,103.213862 157.179883,104.204102 C157.402541,104.526369 157.604687,104.763671 157.786328,104.916016 C157.997267,105.06836 158.06172,105.273436 157.979688,105.53125 C157.897656,105.789064 157.721877,105.917969 157.452344,105.917969 Z" id="twitter-alert-2"></path>
        </g>
    </g>
</svg>