<?xml version="1.0" encoding="UTF-8"?>
<svg width="17px" height="17px" viewBox="0 0 17 17" version="1.1" xmlns="http://www.w3.org/2000/svg" xmlns:xlink="http://www.w3.org/1999/xlink">
    <!-- Generator: Sketch 44.1 (41455) - http://www.bohemiancoding.com/sketch -->
    <title>twitter-play</title>
    <desc>Created with Sketch.</desc>
    <defs></defs>
    <g id="Page-1" stroke="none" stroke-width="1" fill="none" fill-rule="evenodd">
        <g id="twitter-newui-iconkit" transform="translate(-93.000000, -144.000000)" fill="#AAB8C3">
            <path d="M104.267578,152.068359 C104.267578,152.197266 104.208985,152.302734 104.091797,152.384766 L99.5917969,155.25 C99.5449216,155.285156 99.4804692,155.302734 99.3984375,155.302734 L99.2050781,155.267578 C99.0761712,155.185546 99.0117188,155.074219 99.0117188,154.933594 L99.0117188,149.203125 C99.0117188,149.062499 99.0761712,148.951172 99.2050781,148.869141 C99.3457038,148.810547 99.4746088,148.816406 99.5917969,148.886719 L104.091797,151.751953 C104.208985,151.833985 104.267578,151.939452 104.267578,152.068359 Z M101.068359,145.125 C99.1464748,145.125 97.5087958,145.801751 96.1552734,147.155273 C94.801751,148.508796 94.125,150.146475 94.125,152.068359 C94.125,153.990244 94.801751,155.627923 96.1552734,156.981445 C97.5087958,158.334968 99.1464748,159.011719 101.068359,159.011719 C102.990244,159.011719 104.627923,158.334968 105.981445,156.981445 C107.334968,155.627923 108.011719,153.990244 108.011719,152.068359 C108.011719,150.146475 107.334968,148.508796 105.981445,147.155273 C104.627923,145.801751 102.990244,145.125 101.068359,145.125 Z M101.068359,160.136719 C99.6152271,160.136719 98.2675843,159.776371 97.0253906,159.055664 C95.7831969,158.334957 94.8017614,157.353522 94.0810547,156.111328 C93.360348,154.869134 93,153.521492 93,152.068359 C93,150.615227 93.360348,149.267584 94.0810547,148.025391 C94.8017614,146.783197 95.7831969,145.801761 97.0253906,145.081055 C98.2675843,144.360348 99.6152271,144 101.068359,144 C102.521492,144 103.869134,144.360348 105.111328,145.081055 C106.353522,145.801761 107.334957,146.783197 108.055664,148.025391 C108.776371,149.267584 109.136719,150.615227 109.136719,152.068359 C109.136719,153.521492 108.776371,154.869134 108.055664,156.111328 C107.334957,157.353522 106.353522,158.334957 105.111328,159.055664 C103.869134,159.776371 102.521492,160.136719 101.068359,160.136719 Z" id="twitter-play"></path>
        </g>
    </g>
</svg>