<?xml version="1.0" encoding="UTF-8"?>
<svg width="12px" height="15px" viewBox="0 0 12 15" version="1.1" xmlns="http://www.w3.org/2000/svg" xmlns:xlink="http://www.w3.org/1999/xlink">
    <!-- Generator: Sketch 44.1 (41455) - http://www.bohemiancoding.com/sketch -->
    <title>twitter-lit</title>
    <desc>Created with Sketch.</desc>
    <defs></defs>
    <g id="Page-1" stroke="none" stroke-width="1" fill="none" fill-rule="evenodd">
        <g id="twitter-newui-iconkit" transform="translate(-545.000000, -194.000000)" fill="#AAB8C3">
            <path d="M550.919611,208.7647 C550.919611,208.835013 550.893244,208.896536 550.840509,208.94927 C550.787774,209.002005 550.726252,209.028372 550.655939,209.028372 L550.638361,209.028372 C550.591485,209.028372 550.55633,209.022513 550.532892,209.010794 C547.415689,207.452192 545.611019,205.741272 545.118829,203.877981 C544.81414,202.682663 545.095388,201.50494 545.962579,200.344778 C546.501645,199.629931 546.949882,198.991265 547.307306,198.428762 C547.66473,197.86626 547.884454,197.485404 547.966486,197.286184 L548.089533,196.969778 C548.124689,196.840871 548.218438,196.776419 548.370783,196.776419 C548.511408,196.799856 548.593439,196.881887 548.616876,197.022512 C548.67547,198.065486 548.857109,198.961962 549.161798,199.711966 C549.759457,198.961962 550.269218,198.030331 550.691095,196.917044 C551.112972,195.803757 551.323908,194.913141 551.323908,194.245169 C551.347345,194.104543 551.417657,194.028372 551.534845,194.016653 C551.652033,193.981497 551.734064,194.002004 551.780939,194.078177 C552.806335,195.742247 553.913745,197.368208 555.103204,198.956106 C556.603212,200.98346 557.13055,202.744185 556.685236,204.238333 C556.239921,205.732481 554.821966,206.913133 552.431329,207.780325 C552.314141,207.815481 552.214533,207.783255 552.132501,207.683645 C552.05047,207.584035 552.038751,207.487357 552.097345,207.393606 C552.472347,206.831103 552.750664,206.224664 552.932306,205.57427 C553.113948,204.923876 553.198908,204.373101 553.187189,203.921927 C553.17547,203.470752 553.078791,202.919977 552.89715,202.269583 C552.715508,201.619189 552.425472,200.960016 552.027033,200.292044 C551.933282,201.206111 551.511411,202.096727 550.761408,202.963919 C550.362968,203.420952 550.116877,203.962939 550.023126,204.589895 C549.929376,205.216852 549.97625,205.911181 550.163751,206.672903 C550.351252,207.434626 550.524102,207.956105 550.682306,208.237356 C550.84051,208.518608 550.919611,208.694387 550.919611,208.7647 Z" id="twitter-lit"></path>
        </g>
    </g>
</svg>