<?xml version="1.0" encoding="UTF-8"?>
<svg width="17px" height="16px" viewBox="0 0 17 16" version="1.1" xmlns="http://www.w3.org/2000/svg" xmlns:xlink="http://www.w3.org/1999/xlink">
    <!-- Generator: Sketch 44.1 (41455) - http://www.bohemiancoding.com/sketch -->
    <title>twitter-profile-3</title>
    <desc>Created with Sketch.</desc>
    <defs></defs>
    <g id="Page-1" stroke="none" stroke-width="1" fill="none" fill-rule="evenodd">
        <g id="twitter-newui-iconkit" transform="translate(-393.000000, -144.000000)" fill="#AAB8C3">
            <path d="M399.277194,153.808594 C398.035,153.808594 396.936379,154.145504 395.981296,154.819336 C395.026213,155.493167 394.413914,156.369135 394.144382,157.447266 C394.109225,157.634767 394.138522,157.798827 394.232272,157.939453 C394.337741,158.06836 394.478365,158.132812 394.654147,158.132812 L403.882663,158.132812 C404.058445,158.132812 404.199069,158.06836 404.304538,157.939453 C404.398288,157.798827 404.427585,157.634767 404.392428,157.447266 C404.122896,156.369135 403.513527,155.493167 402.564303,154.819336 C401.61508,154.145504 400.519388,153.808594 399.277194,153.808594 Z M399.277194,152.683594 C400.777202,152.683594 402.104337,153.102535 403.258639,153.94043 C404.412942,154.778325 405.154146,155.859368 405.482272,157.183594 C405.611179,157.722659 405.5145,158.203123 405.192233,158.625 C404.869966,159.046877 404.433447,159.257812 403.882663,159.257812 L394.654147,159.257812 C394.115082,159.257812 393.681493,159.046877 393.353366,158.625 C393.025239,158.203123 392.925631,157.722659 393.054538,157.183594 C393.394383,155.859368 394.141446,154.778325 395.295749,153.94043 C396.450051,153.102535 397.777187,152.683594 399.277194,152.683594 Z M409.314303,152.771484 C409.314303,152.923829 409.26157,153.055664 409.1561,153.166992 C409.050631,153.278321 408.918796,153.333984 408.760593,153.333984 C408.602389,153.333984 408.470554,153.281251 408.365085,153.175781 L406.870944,151.699219 L405.394382,153.175781 C405.288912,153.281251 405.157078,153.333984 404.998874,153.333984 C404.84067,153.333984 404.708835,153.278321 404.603366,153.166992 C404.497897,153.055664 404.445163,152.923829 404.445163,152.771484 C404.445163,152.61914 404.497897,152.484376 404.603366,152.367188 L406.079928,150.890625 L404.603366,149.414062 C404.497897,149.308593 404.445163,149.179688 404.445163,149.027344 C404.445163,148.874999 404.497897,148.740235 404.603366,148.623047 C404.720554,148.517578 404.855318,148.464844 405.007663,148.464844 C405.160007,148.464844 405.294772,148.517578 405.41196,148.623047 L406.888522,150.099609 L408.365085,148.623047 C408.470554,148.517578 408.599459,148.464844 408.751803,148.464844 C408.904148,148.464844 409.038912,148.517578 409.1561,148.623047 C409.26157,148.740235 409.314303,148.874999 409.314303,149.027344 C409.314303,149.179688 409.26157,149.308593 409.1561,149.414062 L407.679538,150.890625 L409.1561,152.367188 C409.26157,152.484376 409.314303,152.61914 409.314303,152.771484 Z M399.268405,150.486328 C400.317238,150.486328 400.993989,150.29883 401.298678,149.923828 C401.685399,149.501951 401.796726,148.705084 401.632663,147.533203 C401.56235,146.994138 401.380711,146.484377 401.087741,146.003906 C400.730317,145.417966 400.129737,145.125 399.285983,145.125 C398.43637,145.125 397.827001,145.417966 397.457858,146.003906 C397.159029,146.478518 396.97446,146.988279 396.904147,147.533203 C396.740084,148.705084 396.851411,149.501951 397.238132,149.923828 C397.542821,150.29883 398.219572,150.486328 399.268405,150.486328 Z M399.268405,151.611328 C397.891445,151.611328 396.918798,151.283206 396.350436,150.626953 C395.782074,149.9707 395.591646,148.886726 395.779147,147.375 C395.931492,146.320307 396.315277,145.494144 396.930514,144.896484 C397.545752,144.298825 398.327971,144 399.277194,144 C400.226418,144 401.008636,144.298825 401.623874,144.896484 C402.239111,145.494144 402.617037,146.320307 402.757663,147.375 C402.945164,148.886726 402.754736,149.9707 402.186374,150.626953 C401.618012,151.283206 400.645365,151.611328 399.268405,151.611328 Z" id="twitter-profile-3"></path>
        </g>
    </g>
</svg>