<?xml version="1.0" encoding="UTF-8"?>
<svg width="13px" height="16px" viewBox="0 0 13 16" version="1.1" xmlns="http://www.w3.org/2000/svg" xmlns:xlink="http://www.w3.org/1999/xlink">
    <!-- Generator: Sketch 44.1 (41455) - http://www.bohemiancoding.com/sketch -->
    <title>twitter-pin</title>
    <desc>Created with Sketch.</desc>
    <defs></defs>
    <g id="Page-1" stroke="none" stroke-width="1" fill="none" fill-rule="evenodd">
        <g id="twitter-newui-iconkit" transform="translate(-295.000000, -194.000000)" fill="#AAB8C3">
            <path d="M306.762277,204.037109 L303.721261,204.037109 L301.541574,209.064453 C301.471261,209.216798 301.354075,209.292969 301.190011,209.292969 C301.025948,209.292969 300.914621,209.216798 300.856027,209.064453 L298.676339,204.037109 L295.617746,204.037109 C295.406807,204.037109 295.242746,203.963868 295.125558,203.817383 C295.00837,203.670898 294.973214,203.521485 295.020089,203.369141 C295.148996,202.748044 295.518133,202.138675 296.127511,201.541016 C296.736889,200.943356 297.369696,200.521486 298.025949,200.275391 L298.377511,196.583984 L297.252511,194.896484 C297.135323,194.697265 297.129464,194.498048 297.234933,194.298828 C297.340403,194.099608 297.510323,194 297.744699,194 L304.600168,194 C304.834544,194 304.998605,194.099608 305.092355,194.298828 C305.209543,194.509767 305.203684,194.708983 305.074777,194.896484 L303.949777,196.566406 L304.354074,200.275391 C305.010327,200.521486 305.643133,200.943356 306.252511,201.541016 C306.861889,202.138675 307.231026,202.748044 307.359933,203.369141 C307.406808,203.521485 307.377512,203.673827 307.272043,203.826172 C307.131417,203.966798 306.961497,204.037109 306.762277,204.037109 Z" id="twitter-pin"></path>
        </g>
    </g>
</svg>