<?xml version="1.0" encoding="UTF-8"?>
<svg width="17px" height="15px" viewBox="0 0 17 15" version="1.1" xmlns="http://www.w3.org/2000/svg" xmlns:xlink="http://www.w3.org/1999/xlink">
    <!-- Generator: Sketch 44.1 (41455) - http://www.bohemiancoding.com/sketch -->
    <title>twitter-video</title>
    <desc>Created with Sketch.</desc>
    <defs></defs>
    <g id="Page-1" stroke="none" stroke-width="1" fill="none" fill-rule="evenodd">
        <g id="twitter-newui-iconkit" transform="translate(-193.000000, -245.000000)" fill="#AAB8C3">
            <path d="M199.925781,249.605469 C199.234372,249.605469 198.642581,249.85449 198.150391,250.352539 C197.658201,250.850588 197.412109,251.445309 197.412109,252.136719 C197.412109,252.828128 197.658201,253.419919 198.150391,253.912109 C198.642581,254.404299 199.234372,254.650391 199.925781,254.650391 C200.617191,254.650391 201.208982,254.404299 201.701172,253.912109 C202.193362,253.419919 202.439453,252.828128 202.439453,252.136719 C202.439453,251.445309 202.193362,250.850588 201.701172,250.352539 C201.208982,249.85449 200.617191,249.605469 199.925781,249.605469 Z M208.697266,249.183594 L206.851562,250.677734 L206.851562,253.595703 L208.697266,255.072266 L208.697266,249.183594 Z M199.925781,255.775391 C198.929683,255.775391 198.074222,255.417972 197.359375,254.703125 C196.644528,253.988278 196.287109,253.129888 196.287109,252.12793 C196.287109,251.125972 196.641598,250.267582 197.350586,249.552734 C198.059574,248.837887 198.917964,248.480469 199.925781,248.480469 C200.933599,248.480469 201.791989,248.837887 202.500977,249.552734 C203.209964,250.267582 203.564453,251.125972 203.564453,252.12793 C203.564453,253.129888 203.207035,253.988278 202.492188,254.703125 C201.77734,255.417972 200.92188,255.775391 199.925781,255.775391 Z M205.726562,257.568359 L205.726562,246.6875 C205.726562,246.535155 205.670899,246.403321 205.55957,246.291992 C205.448242,246.180664 205.316407,246.125 205.164062,246.125 L194.6875,246.125 C194.535155,246.125 194.403321,246.180664 194.291992,246.291992 C194.180664,246.403321 194.125,246.535155 194.125,246.6875 L194.125,257.568359 C194.125,257.732423 194.180664,257.867187 194.291992,257.972656 C194.403321,258.078126 194.535155,258.130859 194.6875,258.130859 L205.164062,258.130859 C205.316407,258.130859 205.448242,258.075196 205.55957,257.963867 C205.670899,257.852539 205.726562,257.720704 205.726562,257.568359 Z M209.822266,248.005859 L209.822266,256.25 C209.822266,256.484376 209.710939,256.654296 209.488281,256.759766 C209.417968,256.794922 209.324219,256.8125 209.207031,256.8125 C209.089843,256.8125 208.984375,256.771485 208.890625,256.689453 L206.851562,255.037109 L206.851562,257.568359 C206.851562,258.037112 206.687502,258.435545 206.359375,258.763672 C206.031248,259.091799 205.632815,259.255859 205.164062,259.255859 L194.6875,259.255859 C194.218748,259.255859 193.820314,259.091799 193.492188,258.763672 C193.164061,258.435545 193,258.037112 193,257.568359 L193,246.6875 C193,246.230466 193.164061,245.834963 193.492188,245.500977 C193.820314,245.166991 194.218748,245 194.6875,245 L205.164062,245 C205.632815,245 206.031248,245.166991 206.359375,245.500977 C206.687502,245.834963 206.851562,246.230466 206.851562,246.6875 L206.851562,249.21875 L208.890625,247.566406 C209.078126,247.425781 209.280272,247.408203 209.49707,247.513672 C209.713868,247.619141 209.822266,247.783202 209.822266,248.005859 Z" id="twitter-video"></path>
        </g>
    </g>
</svg>