<?xml version="1.0" encoding="UTF-8"?>
<svg width="13px" height="16px" viewBox="0 0 13 16" version="1.1" xmlns="http://www.w3.org/2000/svg" xmlns:xlink="http://www.w3.org/1999/xlink">
    <!-- Generator: Sketch 44.1 (41455) - http://www.bohemiancoding.com/sketch -->
    <title>twitter-profile</title>
    <desc>Created with Sketch.</desc>
    <defs></defs>
    <g id="Page-1" stroke="none" stroke-width="1" fill="none" fill-rule="evenodd">
        <g id="twitter-newui-iconkit" transform="translate(-395.000000, -44.000000)" fill="#AAB8C3">
            <path d="M401.269161,53.8085938 C400.026967,53.8085938 398.928345,54.1484341 397.973263,54.828125 C397.01818,55.5078159 396.41174,56.380854 396.153927,57.4472656 C396.095333,57.6347666 396.11877,57.7958978 396.224239,57.9306641 C396.329708,58.0654304 396.476191,58.1328125 396.663692,58.1328125 L405.87463,58.1328125 C406.062131,58.1328125 406.208614,58.0654304 406.314083,57.9306641 C406.419552,57.7958978 406.442989,57.6347666 406.384395,57.4472656 C406.126582,56.380854 405.520142,55.5078159 404.565059,54.828125 C403.609977,54.1484341 402.511355,53.8085938 401.269161,53.8085938 Z M405.87463,59.2402344 L396.663692,59.2402344 C396.101189,59.2402344 395.658811,59.029299 395.336544,58.6074219 C395.014277,58.1855448 394.923457,57.7109401 395.064083,57.1835938 C395.39221,55.8593684 396.133413,54.7783245 397.287716,53.9404297 C398.442018,53.1025349 399.769154,52.6835938 401.269161,52.6835938 C402.769169,52.6835938 404.096304,53.1025349 405.250606,53.9404297 C406.404909,54.7783245 407.146113,55.8593684 407.474239,57.1835938 C407.626584,57.7226589 407.526975,58.2031229 407.175411,58.625 C406.870722,59.0351583 406.437133,59.2402344 405.87463,59.2402344 Z M401.269161,50.4863281 C402.300416,50.4863281 402.991816,50.2841817 403.34338,49.8798828 C403.694944,49.4755839 403.794552,48.6933652 403.642208,47.5332031 C403.571895,46.9882785 403.387327,46.478518 403.088497,46.0039062 C402.719354,45.4179658 402.112915,45.125 401.269161,45.125 C400.425407,45.125 399.818968,45.4179658 399.449825,46.0039062 C399.150995,46.478518 398.966427,46.9882785 398.896114,47.5332031 C398.74377,48.6933652 398.843378,49.4755839 399.194942,49.8798828 C399.546507,50.2841817 400.237906,50.4863281 401.269161,50.4863281 Z M401.269161,51.6113281 C399.886342,51.6113281 398.907836,51.2832064 398.333614,50.6269531 C397.759393,49.9706998 397.577754,48.8867263 397.788692,47.375 C397.929318,46.3203072 398.307244,45.4941436 398.922481,44.8964844 C399.537719,44.2988251 400.319938,44 401.269161,44 C402.218385,44 403.000603,44.2988251 403.615841,44.8964844 C404.231078,45.4941436 404.609004,46.3203072 404.74963,47.375 C404.960568,48.8867263 404.77893,49.9706998 404.204708,50.6269531 C403.630486,51.2832064 402.65198,51.6113281 401.269161,51.6113281 Z" id="twitter-profile"></path>
        </g>
    </g>
</svg>