<?xml version="1.0" encoding="UTF-8"?>
<svg width="15px" height="16px" viewBox="0 0 15 16" version="1.1" xmlns="http://www.w3.org/2000/svg" xmlns:xlink="http://www.w3.org/1999/xlink">
    <!-- Generator: Sketch 44.1 (41455) - http://www.bohemiancoding.com/sketch -->
    <title>twitter-nosound</title>
    <desc>Created with Sketch.</desc>
    <defs></defs>
    <g id="Page-1" stroke="none" stroke-width="1" fill="none" fill-rule="evenodd">
        <g id="twitter-newui-iconkit" transform="translate(-244.000000, -194.000000)" fill="#AAB8C3">
            <path d="M253.650391,201.823103 C253.802735,201.823103 253.93457,201.875837 254.045898,201.981306 C254.157227,202.086775 254.212891,202.22154 254.212891,202.385603 L254.212891,208.432478 C254.212891,208.666854 254.107423,208.842634 253.896484,208.959822 C253.673827,209.053572 253.468751,209.024276 253.28125,208.871931 L250.029297,206.006697 C249.912109,205.901228 249.847656,205.772323 249.835938,205.619978 C249.824219,205.467634 249.871093,205.332869 249.976562,205.215681 C250.082032,205.098493 250.210937,205.034041 250.363281,205.022322 C250.515626,205.010603 250.65039,205.057478 250.767578,205.162947 L253.087891,207.202009 L253.087891,202.385603 C253.087891,202.233259 253.143554,202.101424 253.254883,201.990095 C253.366211,201.878767 253.498046,201.823103 253.650391,201.823103 Z M258.994141,194.651228 C258.994141,194.803573 258.941407,194.932478 258.835938,195.037947 L244.966797,208.924666 C244.83789,209.030135 244.703126,209.082869 244.5625,209.082869 C244.421874,209.082869 244.28711,209.030135 244.158203,208.924666 C244.052734,208.807478 244,208.672713 244,208.520369 C244,208.368024 244.052734,208.239119 244.158203,208.13365 L258.044922,194.246931 C258.150391,194.141462 258.279296,194.088728 258.431641,194.088728 C258.583985,194.088728 258.718749,194.141462 258.835938,194.246931 C258.941407,194.364119 258.994141,194.498884 258.994141,194.651228 Z M244.84375,203.475447 L244.84375,199.625837 C244.84375,199.157085 245.007811,198.758652 245.335938,198.430525 C245.664064,198.102398 246.062498,197.938337 246.53125,197.938337 L248.939453,197.938337 L253.28125,194.141462 C253.468751,193.989118 253.670897,193.959821 253.887695,194.053572 C254.104493,194.147322 254.212891,194.317242 254.212891,194.563337 L254.212891,196.637556 C254.212891,196.789901 254.157227,196.921735 254.045898,197.033064 C253.93457,197.144393 253.802735,197.200056 253.650391,197.200056 C253.498046,197.200056 253.366211,197.144393 253.254883,197.033064 C253.143554,196.921735 253.087891,196.789901 253.087891,196.637556 L253.087891,195.811384 L249.712891,198.764509 L249.712891,201.067244 C249.712891,201.219588 249.657227,201.351423 249.545898,201.462752 C249.43457,201.57408 249.302735,201.629744 249.150391,201.629744 C248.998046,201.629744 248.866211,201.57408 248.754883,201.462752 C248.643554,201.351423 248.587891,201.219588 248.587891,201.067244 L248.587891,199.063337 L246.53125,199.063337 C246.378905,199.063337 246.247071,199.119001 246.135742,199.23033 C246.024414,199.341658 245.96875,199.473493 245.96875,199.625837 L245.96875,203.475447 C245.96875,203.627791 246.030273,203.750837 246.15332,203.844587 C246.276368,203.938338 246.349609,204.064313 246.373047,204.222517 C246.396484,204.380721 246.35254,204.527204 246.241211,204.66197 C246.129882,204.796737 245.998048,204.864119 245.845703,204.864119 C245.693359,204.864119 245.570313,204.823103 245.476562,204.741072 C245.054685,204.424664 244.84375,204.002793 244.84375,203.475447 Z" id="twitter-nosound"></path>
        </g>
    </g>
</svg>