<?xml version="1.0" encoding="UTF-8"?>
<svg width="11px" height="15px" viewBox="0 0 11 15" version="1.1" xmlns="http://www.w3.org/2000/svg" xmlns:xlink="http://www.w3.org/1999/xlink">
    <!-- Generator: Sketch 44.1 (41455) - http://www.bohemiancoding.com/sketch -->
    <title>twitter-mobile</title>
    <desc>Created with Sketch.</desc>
    <defs></defs>
    <g id="Page-1" stroke="none" stroke-width="1" fill="none" fill-rule="evenodd">
        <g id="twitter-newui-iconkit" transform="translate(-546.000000, -245.000000)" fill="#AAB8C3">
            <path d="M550.130859,258.746094 L551.994141,258.746094 C552.146485,258.746094 552.27832,258.69043 552.389648,258.579102 C552.500977,258.467773 552.556641,258.335938 552.556641,258.183594 C552.556641,258.031249 552.500977,257.899415 552.389648,257.788086 C552.27832,257.676757 552.146485,257.621094 551.994141,257.621094 L550.130859,257.621094 C549.978515,257.621094 549.84668,257.676757 549.735352,257.788086 C549.624023,257.899415 549.568359,258.031249 549.568359,258.183594 C549.568359,258.335938 549.624023,258.467773 549.735352,258.579102 C549.84668,258.69043 549.978515,258.746094 550.130859,258.746094 Z M555,255.828125 L555,246.705078 C555,246.541015 554.944336,246.403321 554.833008,246.291992 C554.721679,246.180664 554.589845,246.125 554.4375,246.125 L547.6875,246.125 C547.535155,246.125 547.403321,246.180664 547.291992,246.291992 C547.180664,246.403321 547.125,246.541015 547.125,246.705078 L547.125,255.828125 C547.125,255.992188 547.180664,256.129882 547.291992,256.241211 C547.403321,256.35254 547.535155,256.408203 547.6875,256.408203 L554.4375,256.408203 C554.589845,256.408203 554.721679,256.35254 554.833008,256.241211 C554.944336,256.129882 555,255.992188 555,255.828125 Z M547.6875,245 L554.4375,245 C554.906252,245 555.304686,245.166991 555.632812,245.500977 C555.960939,245.834963 556.125,246.236326 556.125,246.705078 L556.125,258.236328 C556.125,258.70508 555.960939,259.106444 555.632812,259.44043 C555.304686,259.774416 554.906252,259.941406 554.4375,259.941406 L547.6875,259.941406 C547.218748,259.941406 546.820314,259.774416 546.492188,259.44043 C546.164061,259.106444 546,258.70508 546,258.236328 L546,246.705078 C546,246.236326 546.164061,245.834963 546.492188,245.500977 C546.820314,245.166991 547.218748,245 547.6875,245 Z" id="twitter-mobile"></path>
        </g>
    </g>
</svg>