<?xml version="1.0" encoding="UTF-8"?>
<svg width="15px" height="16px" viewBox="0 0 15 16" version="1.1" xmlns="http://www.w3.org/2000/svg" xmlns:xlink="http://www.w3.org/1999/xlink">
    <!-- Generator: Sketch 44.1 (41455) - http://www.bohemiancoding.com/sketch -->
    <title>twitter-alert</title>
    <desc>Created with Sketch.</desc>
    <defs></defs>
    <g id="Page-1" stroke="none" stroke-width="1" fill="none" fill-rule="evenodd">
        <g id="twitter-newui-iconkit" transform="translate(-143.000000, -44.000000)" fill="#AAB8C3">
            <path d="M150.508985,57.921875 C151.071488,57.921875 151.554881,57.7285176 151.95918,57.3417969 C152.363479,56.9550762 152.589063,56.4804716 152.635938,55.9179688 L148.382032,55.9179688 C148.428907,56.4804716 148.654491,56.9550762 149.058789,57.3417969 C149.463088,57.7285176 149.946482,57.921875 150.508985,57.921875 Z M144.796094,54.7929688 L156.221875,54.7929688 C155.448434,53.5859315 155.070508,52.1357507 155.088086,50.4423828 C155.105665,48.749015 154.622271,47.4101612 153.637891,46.4257812 C152.805856,45.582027 151.762897,45.1484376 150.508985,45.125 C149.255072,45.1484376 148.212114,45.582027 147.380078,46.4257812 C146.395699,47.4101612 145.912305,48.749015 145.929883,50.4423828 C145.947461,52.1357507 145.569535,53.5859315 144.796094,54.7929688 Z M157.452344,55.9179688 L153.760938,55.9179688 C153.714063,56.7851606 153.377152,57.5234345 152.750196,58.1328125 C152.123239,58.7421905 151.373247,59.046875 150.500196,59.046875 C149.627144,59.046875 148.880082,58.7451202 148.258985,58.1416016 C147.637888,57.5380829 147.303907,56.7968794 147.257032,55.9179688 L143.565625,55.9179688 C143.284374,55.9179688 143.108594,55.7890638 143.038282,55.53125 C142.95625,55.2734362 143.006054,55.0771491 143.187696,54.9423828 C143.580276,54.655272 143.949413,54.1220742 144.295118,53.3427734 C144.640822,52.5693321 144.813672,51.5820373 144.813672,50.3808594 C144.790235,48.4238183 145.376166,46.8418029 146.571485,45.6347656 C147.637896,44.568354 148.950383,44.0234376 150.508985,44 C152.067586,44.0234376 153.380073,44.568354 154.446485,45.6347656 C155.641803,46.8418029 156.227735,48.4238183 156.204297,50.3808594 C156.175,51.9394609 156.500192,53.2138622 157.179883,54.2041016 C157.402541,54.5263688 157.604687,54.7636711 157.786328,54.9160156 C157.997267,55.0683601 158.064649,55.2734362 157.988477,55.53125 C157.912305,55.7890638 157.733596,55.9179688 157.452344,55.9179688 Z" id="twitter-alert"></path>
        </g>
    </g>
</svg>