<?xml version="1.0" encoding="UTF-8"?>
<svg width="17px" height="15px" viewBox="0 0 17 15" version="1.1" xmlns="http://www.w3.org/2000/svg" xmlns:xlink="http://www.w3.org/1999/xlink">
    <!-- Generator: Sketch 44.1 (41455) - http://www.bohemiancoding.com/sketch -->
    <title>twitter-gif</title>
    <desc>Created with Sketch.</desc>
    <defs></defs>
    <g id="Page-1" stroke="none" stroke-width="1" fill="none" fill-rule="evenodd">
        <g id="twitter-newui-iconkit" transform="translate(-543.000000, -95.000000)" fill="#AAB8C3">
            <path d="M556.306641,101.380859 L554.267578,101.380859 L554.267578,102.136719 L555.796875,102.136719 L555.796875,103.402344 L554.267578,103.402344 L554.267578,104.914062 L553.001953,104.914062 L553.001953,100.115234 L556.306641,100.115234 L556.306641,101.380859 Z M552.087891,100.115234 L552.087891,104.914062 L550.822266,104.914062 L550.822266,100.115234 L552.087891,100.115234 Z M548.150391,101.310547 C547.810545,101.310547 547.523439,101.427733 547.289062,101.662109 C547.054686,101.896486 546.9375,102.180662 546.9375,102.514648 C546.9375,102.848634 547.054686,103.132811 547.289062,103.367188 C547.523439,103.601564 547.76953,103.71875 548.027344,103.71875 C548.285158,103.71875 548.51953,103.666016 548.730469,103.560547 L548.730469,103.121094 L547.833984,103.121094 L547.833984,102.224609 L549.925781,102.224609 L549.925781,104.105469 C549.44531,104.644534 548.862308,104.914062 548.176758,104.914062 C547.491208,104.914062 546.911135,104.67969 546.436523,104.210938 C545.961912,103.742185 545.724609,103.176761 545.724609,102.514648 C545.724609,101.852536 545.961912,101.287112 546.436523,100.818359 C546.911135,100.349607 547.491208,100.115234 548.176758,100.115234 C548.862308,100.115234 549.44531,100.390622 549.925781,100.941406 L549.925781,100.958984 L549.011719,101.697266 C548.777343,101.439452 548.490236,101.310547 548.150391,101.310547 Z M558.011719,108.324219 L558.011719,96.6875 C558.011719,96.5351555 557.956055,96.4033209 557.844727,96.2919922 C557.733398,96.1806635 557.601563,96.125 557.449219,96.125 L544.6875,96.125 C544.535155,96.125 544.403321,96.1806635 544.291992,96.2919922 C544.180664,96.4033209 544.125,96.5351555 544.125,96.6875 L544.125,108.324219 C544.125,108.476563 544.180664,108.605468 544.291992,108.710938 C544.403321,108.816407 544.535155,108.869141 544.6875,108.869141 L557.449219,108.869141 C557.601563,108.869141 557.733398,108.816407 557.844727,108.710938 C557.956055,108.605468 558.011719,108.476563 558.011719,108.324219 Z M544.6875,95 L557.449219,95 C557.917971,95 558.316405,95.1640609 558.644531,95.4921875 C558.972658,95.8203141 559.136719,96.2187477 559.136719,96.6875 L559.136719,108.324219 C559.136719,108.792971 558.972658,109.188475 558.644531,109.510742 C558.316405,109.833009 557.917971,109.994141 557.449219,109.994141 L544.6875,109.994141 C544.218748,109.994141 543.820314,109.833009 543.492188,109.510742 C543.164061,109.188475 543,108.792971 543,108.324219 L543,96.6875 C543,96.2187477 543.164061,95.8203141 543.492188,95.4921875 C543.820314,95.1640609 544.218748,95 544.6875,95 Z" id="twitter-gif"></path>
        </g>
    </g>
</svg>