<?xml version="1.0" encoding="UTF-8"?>
<svg width="12px" height="16px" viewBox="0 0 12 16" version="1.1" xmlns="http://www.w3.org/2000/svg" xmlns:xlink="http://www.w3.org/1999/xlink">
    <!-- Generator: Sketch 44.1 (41455) - http://www.bohemiancoding.com/sketch -->
    <title>twitter-profile-2</title>
    <desc>Created with Sketch.</desc>
    <defs></defs>
    <g id="Page-1" stroke="none" stroke-width="1" fill="none" fill-rule="evenodd">
        <g id="twitter-newui-iconkit" transform="translate(-395.000000, -95.000000)" fill="#AAB8C3">
            <path d="M396.601413,110.011719 C396.097504,110.011719 395.681493,109.806643 395.353366,109.396484 C395.025239,108.986326 394.925631,108.505862 395.054538,107.955078 C395.370946,106.630853 396.079923,105.549809 397.181491,104.711914 C398.283059,103.874019 399.551601,103.455078 400.987155,103.455078 C402.422709,103.455078 403.691251,103.874019 404.792819,104.711914 C405.894387,105.549809 406.603364,106.630853 406.919772,107.955078 C407.048679,108.505862 406.949071,108.986326 406.620944,109.396484 C406.292817,109.806643 405.876806,110.011719 405.372897,110.011719 L396.601413,110.011719 Z M400.987155,102.628906 C399.610195,102.628906 398.652197,102.312503 398.113132,101.679688 C397.503754,101.011715 397.298677,99.9160232 397.497897,98.3925781 C397.650242,97.3261665 398.034027,96.4941436 398.649264,95.8964844 C399.264502,95.2988251 400.046721,95 400.995944,95 C401.945168,95 402.727386,95.2988251 403.342624,95.8964844 C403.957861,96.4941436 404.335787,97.3261665 404.476413,98.3925781 C404.675633,99.9160232 404.470556,101.011715 403.861178,101.679688 C403.322113,102.312503 402.364115,102.628906 400.987155,102.628906 Z" id="twitter-profile-2"></path>
        </g>
    </g>
</svg>