<?xml version="1.0" encoding="UTF-8"?>
<svg width="16px" height="16px" viewBox="0 0 16 16" version="1.1" xmlns="http://www.w3.org/2000/svg" xmlns:xlink="http://www.w3.org/1999/xlink">
    <!-- Generator: Sketch 44.1 (41455) - http://www.bohemiancoding.com/sketch -->
    <title>twitter-alert-3</title>
    <desc>Created with Sketch.</desc>
    <defs></defs>
    <g id="Page-1" stroke="none" stroke-width="1" fill="none" fill-rule="evenodd">
        <g id="twitter-newui-iconkit" transform="translate(-143.000000, -144.000000)" fill="#AAB8C3">
            <path d="M156.196338,150.662109 C156.196338,151.083986 156.249072,151.561521 156.354541,152.094727 C156.518604,152.938481 156.758836,153.591795 157.075244,154.054688 C157.391652,154.51758 157.640673,154.813476 157.822315,154.942383 C158.003956,155.077149 158.05376,155.273436 157.971729,155.53125 C157.889697,155.789064 157.713917,155.917969 157.444385,155.917969 L153.752979,155.917969 C153.706103,156.796879 153.372122,157.538083 152.751025,158.141602 C152.129929,158.74512 151.379936,159.046875 150.501025,159.046875 C149.926804,159.046875 149.393606,158.906251 148.901416,158.625 C148.409226,158.343749 148.016652,157.962893 147.723682,157.482422 C147.64165,157.341796 147.618213,157.198243 147.653369,157.051758 C147.688526,156.905273 147.770556,156.791016 147.899463,156.708984 C148.02837,156.626953 148.168993,156.603515 148.321338,156.638672 C148.473682,156.673828 148.590869,156.755859 148.6729,156.884766 C149.083059,157.576175 149.692428,157.921875 150.501025,157.921875 C151.063528,157.921875 151.546922,157.728518 151.951221,157.341797 C152.35552,156.955076 152.581103,156.480472 152.627979,155.917969 L149.99126,155.917969 C149.838915,155.917969 149.707081,155.865235 149.595752,155.759766 C149.484423,155.654296 149.42876,155.522462 149.42876,155.364258 C149.42876,155.206054 149.484423,155.07129 149.595752,154.959961 C149.707081,154.848632 149.838915,154.792969 149.99126,154.792969 L156.213916,154.792969 C155.440475,153.585931 155.059619,152.115243 155.071338,150.380859 C155.071338,150.169921 155.068408,150.000001 155.062549,149.871094 C155.056689,149.742187 155.106494,149.619141 155.211963,149.501953 C155.317432,149.384765 155.446337,149.320313 155.598682,149.308594 C155.751026,149.296875 155.882861,149.343749 155.99419,149.449219 C156.105518,149.554688 156.167041,149.677734 156.17876,149.818359 C156.190479,149.958985 156.196338,150.240232 156.196338,150.662109 Z M158.165088,144.650391 C158.165088,144.802735 158.112354,144.937499 158.006885,145.054688 L144.014697,159.046875 C143.909228,159.152344 143.777393,159.205078 143.61919,159.205078 C143.460986,159.205078 143.326221,159.149415 143.214893,159.038086 C143.103564,158.926757 143.0479,158.794923 143.0479,158.642578 C143.0479,158.490234 143.106494,158.355469 143.223682,158.238281 L157.215869,144.246094 C157.321338,144.140624 157.450243,144.087891 157.602588,144.087891 C157.754932,144.087891 157.889697,144.140624 158.006885,144.246094 C158.112354,144.363282 158.165088,144.498046 158.165088,144.650391 Z M143.513721,155.917969 C143.355517,155.917969 143.226612,155.847657 143.127002,155.707031 C143.027392,155.566406 142.986377,155.422852 143.003955,155.276367 C143.021533,155.129882 143.074267,155.024414 143.162158,154.959961 C143.250049,154.895507 143.335009,154.822266 143.417041,154.740234 C143.499073,154.658203 143.630907,154.488283 143.812549,154.230469 C144.503959,153.246089 144.83501,151.962899 144.805713,150.380859 C144.782275,148.423818 145.368207,146.841803 146.563525,145.634766 C147.629937,144.568354 148.942424,144.023438 150.501025,144 C151.778376,144.023438 152.897505,144.398434 153.858447,145.125 C153.987354,145.21875 154.063525,145.344726 154.086963,145.50293 C154.110401,145.661134 154.069385,145.807617 153.963916,145.942383 C153.858447,146.077149 153.723683,146.144531 153.559619,146.144531 C153.395556,146.144531 153.27251,146.103516 153.190479,146.021484 C152.417037,145.447263 151.520562,145.148438 150.501025,145.125 C149.247113,145.148438 148.204155,145.582027 147.372119,146.425781 C146.387739,147.410161 145.907275,148.728507 145.930713,150.380859 C145.942432,151.095707 145.877979,151.772458 145.737354,152.411133 C145.596728,153.049808 145.441456,153.556639 145.271533,153.931641 C145.101611,154.306643 144.893605,154.655272 144.64751,154.977539 C144.401415,155.299806 144.234424,155.501953 144.146533,155.583984 C144.058642,155.666016 143.970752,155.742187 143.882861,155.8125 C143.79497,155.882813 143.671925,155.917969 143.513721,155.917969 Z" id="twitter-alert-3"></path>
        </g>
    </g>
</svg>