<?xml version="1.0" encoding="UTF-8"?>
<svg width="9px" height="15px" viewBox="0 0 9 15" version="1.1" xmlns="http://www.w3.org/2000/svg" xmlns:xlink="http://www.w3.org/1999/xlink">
    <!-- Generator: Sketch 44.1 (41455) - http://www.bohemiancoding.com/sketch -->
    <title>twitter-analytics</title>
    <desc>Created with Sketch.</desc>
    <defs></defs>
    <g id="Page-1" stroke="none" stroke-width="1" fill="none" fill-rule="evenodd">
        <g id="twitter-newui-iconkit" transform="translate(-496.000000, -44.000000)" fill="#AAB8C3">
            <path d="M496.5625,59.0117188 C496.410155,59.0117188 496.278321,58.9560552 496.166992,58.8447266 C496.055664,58.7333979 496,58.6015633 496,58.4492188 L496,50.7324219 C496,50.5800774 496.055664,50.4482427 496.166992,50.3369141 C496.278321,50.2255854 496.410155,50.1699219 496.5625,50.1699219 C496.714845,50.1699219 496.846679,50.2255854 496.958008,50.3369141 C497.069336,50.4482427 497.125,50.5800774 497.125,50.7324219 L497.125,58.4492188 C497.125,58.6015633 497.069336,58.7333979 496.958008,58.8447266 C496.846679,58.9560552 496.714845,59.0117188 496.5625,59.0117188 Z M504.261719,59.0117188 C504.109374,59.0117188 503.97754,58.9560552 503.866211,58.8447266 C503.754882,58.7333979 503.699219,58.6015633 503.699219,58.4492188 L503.699219,48.4296875 C503.699219,48.277343 503.754882,48.1455084 503.866211,48.0341797 C503.97754,47.922851 504.109374,47.8671875 504.261719,47.8671875 C504.414063,47.8671875 504.545898,47.922851 504.657227,48.0341797 C504.768555,48.1455084 504.824219,48.277343 504.824219,48.4296875 L504.824219,58.4492188 C504.824219,58.6015633 504.768555,58.7333979 504.657227,58.8447266 C504.545898,58.9560552 504.414063,59.0117188 504.261719,59.0117188 Z M500.412109,59.0117188 C500.259765,59.0117188 500.12793,58.9560552 500.016602,58.8447266 C499.905273,58.7333979 499.849609,58.6015633 499.849609,58.4492188 L499.849609,44.5625 C499.849609,44.4101555 499.905273,44.2783209 500.016602,44.1669922 C500.12793,44.0556635 500.259765,44 500.412109,44 C500.564454,44 500.696289,44.0556635 500.807617,44.1669922 C500.918946,44.2783209 500.974609,44.4101555 500.974609,44.5625 L500.974609,58.4492188 C500.974609,58.6015633 500.918946,58.7333979 500.807617,58.8447266 C500.696289,58.9560552 500.564454,59.0117188 500.412109,59.0117188 Z" id="twitter-analytics"></path>
        </g>
    </g>
</svg>