<?xml version="1.0" encoding="UTF-8"?>
<svg width="16px" height="14px" viewBox="0 0 16 14" version="1.1" xmlns="http://www.w3.org/2000/svg" xmlns:xlink="http://www.w3.org/1999/xlink">
    <!-- Generator: Sketch 44.1 (41455) - http://www.bohemiancoding.com/sketch -->
    <title>twitter-message</title>
    <desc>Created with Sketch.</desc>
    <defs></defs>
    <g id="Page-1" stroke="none" stroke-width="1" fill="none" fill-rule="evenodd">
        <g id="twitter-newui-iconkit" transform="translate(-244.000000, -45.000000)" fill="#AAB8C3">
            <path d="M246.074219,57.375 L256.9375,57.375 C257.207033,57.375 257.432616,57.2841806 257.614258,57.1025391 C257.795899,56.9208975 257.886719,56.6953138 257.886719,56.4257812 L257.886719,48.9199219 L252.455078,52.5410156 C252.162108,52.7285166 251.845705,52.8222656 251.505859,52.8222656 C251.166014,52.8222656 250.849611,52.7285166 250.556641,52.5410156 L245.125,48.9199219 L245.125,56.4257812 C245.125,56.6953138 245.215819,56.9208975 245.397461,57.1025391 C245.579102,57.2841806 245.804686,57.375 246.074219,57.375 Z M256.9375,46.125 L246.074219,46.125 C245.816405,46.125 245.593751,46.2158194 245.40625,46.3974609 C245.218749,46.5791025 245.125,46.7988268 245.125,47.0566406 L245.125,47.6015625 L251.171875,51.609375 C251.382814,51.7617195 251.605468,51.7675788 251.839844,51.6269531 L257.886719,47.6015625 L257.886719,47.0566406 C257.886719,46.7988268 257.79297,46.5791025 257.605469,46.3974609 C257.417968,46.2158194 257.195314,46.125 256.9375,46.125 Z M246.074219,45 L256.9375,45 C257.511722,45 258.000975,45.1992168 258.405273,45.5976562 C258.809572,45.9960957 259.011719,46.482419 259.011719,47.0566406 L259.011719,56.4257812 C259.011719,57.0000029 258.809572,57.4892558 258.405273,57.8935547 C258.000975,58.2978536 257.511722,58.5 256.9375,58.5 L246.074219,58.5 C245.499997,58.5 245.010744,58.2978536 244.606445,57.8935547 C244.202146,57.4892558 244,57.0000029 244,56.4257812 L244,47.0566406 C244,46.482419 244.202146,45.9960957 244.606445,45.5976562 C245.010744,45.1992168 245.499997,45 246.074219,45 Z" id="twitter-message"></path>
        </g>
    </g>
</svg>