<?xml version="1.0" encoding="UTF-8"?>
<svg width="17px" height="17px" viewBox="0 0 17 17" version="1.1" xmlns="http://www.w3.org/2000/svg" xmlns:xlink="http://www.w3.org/1999/xlink">
    <!-- Generator: Sketch 44.1 (41455) - http://www.bohemiancoding.com/sketch -->
    <title>twitter-check</title>
    <desc>Created with Sketch.</desc>
    <defs></defs>
    <g id="Page-1" stroke="none" stroke-width="1" fill="none" fill-rule="evenodd">
        <g id="twitter-newui-iconkit" transform="translate(-93.000000, -194.000000)" fill="#AAB8C3">
            <path d="M100.163086,205.390625 C100.004882,205.390625 99.8730474,205.332032 99.7675781,205.214844 L97.7460938,203.193359 C97.6289057,203.08789 97.5703125,202.956055 97.5703125,202.797852 C97.5703125,202.639648 97.625976,202.504883 97.7373047,202.393555 C97.8486334,202.282226 97.9833976,202.226562 98.1416016,202.226562 C98.2998055,202.226562 98.4316401,202.285156 98.5371094,202.402344 L100.083984,203.931641 L103.195312,199.167969 C103.277344,199.039062 103.39453,198.957031 103.546875,198.921875 C103.69922,198.886719 103.839843,198.913085 103.96875,199.000977 C104.097657,199.088868 104.179687,199.208984 104.214844,199.361328 C104.25,199.513673 104.220704,199.654296 104.126953,199.783203 L100.875,204.775391 L100.558594,205.214844 C100.453124,205.332032 100.32129,205.390625 100.163086,205.390625 Z M101.068359,195.125 C99.1464748,195.125 97.5087958,195.801751 96.1552734,197.155273 C94.801751,198.508796 94.125,200.146475 94.125,202.068359 C94.125,203.990244 94.801751,205.627923 96.1552734,206.981445 C97.5087958,208.334968 99.1464748,209.011719 101.068359,209.011719 C102.990244,209.011719 104.627923,208.334968 105.981445,206.981445 C107.334968,205.627923 108.011719,203.990244 108.011719,202.068359 C108.011719,200.146475 107.334968,198.508796 105.981445,197.155273 C104.627923,195.801751 102.990244,195.125 101.068359,195.125 Z M101.068359,210.136719 C99.6152271,210.136719 98.2675843,209.776371 97.0253906,209.055664 C95.7831969,208.334957 94.8017614,207.353522 94.0810547,206.111328 C93.360348,204.869134 93,203.521492 93,202.068359 C93,200.615227 93.360348,199.267584 94.0810547,198.025391 C94.8017614,196.783197 95.7831969,195.801761 97.0253906,195.081055 C98.2675843,194.360348 99.6152271,194 101.068359,194 C102.521492,194 103.869134,194.360348 105.111328,195.081055 C106.353522,195.801761 107.334957,196.783197 108.055664,198.025391 C108.776371,199.267584 109.136719,200.615227 109.136719,202.068359 C109.136719,203.521492 108.776371,204.869134 108.055664,206.111328 C107.334957,207.353522 106.353522,208.334957 105.111328,209.055664 C103.869134,209.776371 102.521492,210.136719 101.068359,210.136719 Z" id="twitter-check"></path>
        </g>
    </g>
</svg>