<?xml version="1.0" encoding="UTF-8"?>
<svg width="16px" height="15px" viewBox="0 0 16 15" version="1.1" xmlns="http://www.w3.org/2000/svg" xmlns:xlink="http://www.w3.org/1999/xlink">
    <!-- Generator: Sketch 44.1 (41455) - http://www.bohemiancoding.com/sketch -->
    <title>twitter-like</title>
    <desc>Created with Sketch.</desc>
    <defs></defs>
    <g id="Page-1" stroke="none" stroke-width="1" fill="none" fill-rule="evenodd">
        <g id="twitter-newui-iconkit" transform="translate(-94.000000, -45.000000)" fill="#AAB8C3">
            <path d="M94,49.3066406 C94,48.1699162 94.4072225,47.1679731 95.2216797,46.3007812 C96.0361369,45.4335894 96.9824165,45 98.0605469,45 C99.3964911,45 100.556636,45.68554 101.541016,47.0566406 C102.525396,45.68554 103.68554,45 105.021484,45 C106.099615,45 107.045894,45.4335894 107.860352,46.3007812 C108.674809,47.1679731 109.082031,48.1699162 109.082031,49.3066406 C109.082031,50.4433651 108.780276,51.626947 108.176758,52.8574219 C107.573239,54.0878968 106.861332,55.1513627 106.041016,56.0478516 C105.220699,56.9443404 104.388676,57.6884736 103.544922,58.2802734 C102.701168,58.8720733 102.033206,59.1738281 101.541016,59.1855469 L101.523438,59.1855469 C101.031248,59.1738281 100.366215,58.8720733 99.5283203,58.2802734 C98.6904255,57.6884736 97.8613322,56.9443404 97.0410156,56.0478516 C96.220699,55.1513627 95.5087921,54.0878968 94.9052734,52.8574219 C94.3017548,51.626947 94,50.4433651 94,49.3066406 Z" id="twitter-like"></path>
        </g>
    </g>
</svg>