<?xml version="1.0" encoding="UTF-8"?>
<svg width="16px" height="16px" viewBox="0 0 16 16" version="1.1" xmlns="http://www.w3.org/2000/svg" xmlns:xlink="http://www.w3.org/1999/xlink">
    <!-- Generator: Sketch 44.1 (41455) - http://www.bohemiancoding.com/sketch -->
    <title>twitter-settings</title>
    <desc>Created with Sketch.</desc>
    <defs></defs>
    <g id="Page-1" stroke="none" stroke-width="1" fill="none" fill-rule="evenodd">
        <g id="twitter-newui-iconkit" transform="translate(-343.000000, -144.000000)" fill="#AAB8C3">
            <path d="M350.787109,153.509766 C351.255862,153.509766 351.660155,153.339845 352,153 C352.339845,152.660155 352.509766,152.255862 352.509766,151.787109 C352.509766,151.318357 352.339845,150.914064 352,150.574219 C351.660155,150.234373 351.255862,150.064453 350.787109,150.064453 C350.318357,150.064453 349.914064,150.234373 349.574219,150.574219 C349.234373,150.914064 349.064453,151.318357 349.064453,151.787109 C349.064453,152.255862 349.234373,152.660155 349.574219,153 C349.914064,153.339845 350.318357,153.509766 350.787109,153.509766 Z M350.787109,148.939453 C351.57227,148.939453 352.243161,149.217771 352.799805,149.774414 C353.356448,150.331057 353.634766,151.001949 353.634766,151.787109 C353.634766,152.57227 353.356448,153.243161 352.799805,153.799805 C352.243161,154.356448 351.57227,154.634766 350.787109,154.634766 C350.001949,154.634766 349.331057,154.356448 348.774414,153.799805 C348.217771,153.243161 347.939453,152.57227 347.939453,151.787109 C347.939453,151.001949 348.217771,150.331057 348.774414,149.774414 C349.331057,149.217771 350.001949,148.939453 350.787109,148.939453 Z M351.068359,158.449219 C351.390627,158.449219 351.583984,158.232424 351.648438,157.798828 C351.707032,157.130856 352.052731,156.662111 352.685547,156.392578 C353.3418,156.123046 353.927732,156.210935 354.443359,156.65625 C354.607423,156.785157 354.765624,156.849609 354.917969,156.849609 C355.070313,156.849609 355.199218,156.796876 355.304688,156.691406 L355.691406,156.304688 C355.937501,156.058593 355.94922,155.800783 355.726562,155.53125 L355.65625,155.425781 C355.210935,154.933591 355.117186,154.353519 355.375,153.685547 C355.644533,153.052731 356.119137,152.707032 356.798828,152.648438 C357.232424,152.583984 357.449219,152.384767 357.449219,152.050781 L357.449219,151.505859 C357.449219,151.183592 357.232424,150.990235 356.798828,150.925781 C356.119137,150.867187 355.644533,150.521488 355.375,149.888672 C355.117186,149.232419 355.210935,148.646487 355.65625,148.130859 L355.726562,148.042969 C355.94922,147.773436 355.937501,147.515626 355.691406,147.269531 L355.304688,146.882812 C355.199218,146.777343 355.070313,146.724609 354.917969,146.724609 C354.765624,146.724609 354.589845,146.80664 354.390625,146.970703 C354.191405,147.134766 353.930666,147.243164 353.608398,147.295898 C353.286131,147.348633 352.984376,147.316407 352.703125,147.199219 C352.058591,146.929686 351.707032,146.455082 351.648438,145.775391 C351.583984,145.341795 351.390627,145.125 351.068359,145.125 L350.523438,145.125 C350.177733,145.125 349.981446,145.362302 349.93457,145.836914 C349.905273,146.112306 349.796876,146.375975 349.609375,146.62793 C349.421874,146.879884 349.181642,147.064453 348.888672,147.181641 C348.244137,147.451173 347.664065,147.363283 347.148438,146.917969 C346.984374,146.789062 346.823243,146.724609 346.665039,146.724609 C346.506835,146.724609 346.375001,146.777343 346.269531,146.882812 L345.882812,147.269531 C345.61328,147.539064 345.630858,147.82617 345.935547,148.130859 C346.369143,148.669925 346.454103,149.255856 346.19043,149.888672 C345.926756,150.521488 345.455082,150.867187 344.775391,150.925781 C344.341795,150.990235 344.125,151.189451 344.125,151.523438 L344.125,152.068359 C344.125,152.390627 344.341795,152.583984 344.775391,152.648438 C345.455082,152.707032 345.929686,153.052731 346.199219,153.685547 C346.468751,154.412113 346.351565,155.027341 345.847656,155.53125 C345.624999,155.800783 345.636718,156.058593 345.882812,156.304688 L346.269531,156.691406 C346.375001,156.796876 346.506835,156.849609 346.665039,156.849609 C346.823243,156.849609 346.949218,156.808594 347.042969,156.726562 C347.658206,156.234373 348.267575,156.123046 348.871094,156.392578 C349.515628,156.662111 349.867187,157.130856 349.925781,157.798828 C349.990235,158.232424 350.189451,158.449219 350.523438,158.449219 L351.068359,158.449219 Z M343,152.050781 L343,151.523438 C343,151.078123 343.146483,150.694338 343.439453,150.37207 C343.732423,150.049803 344.10156,149.865235 344.546875,149.818359 L344.669922,149.800781 C344.916017,149.777344 345.074218,149.660157 345.144531,149.449219 C345.238282,149.23828 345.16504,148.989259 344.924805,148.702148 C344.684569,148.415038 344.573242,148.05176 344.59082,147.612305 C344.608399,147.172849 344.775389,146.794923 345.091797,146.478516 L345.478516,146.091797 C345.783205,145.787108 346.155271,145.625977 346.594727,145.608398 C347.034182,145.59082 347.453123,145.740233 347.851562,146.056641 C348.039063,146.208985 348.23828,146.238282 348.449219,146.144531 C348.660157,146.074218 348.777344,145.916017 348.800781,145.669922 L348.818359,145.546875 C348.865235,145.10156 349.049803,144.732423 349.37207,144.439453 C349.694338,144.146483 350.078123,144 350.523438,144 L351.050781,144 C351.496096,144 351.879881,144.146483 352.202148,144.439453 C352.524416,144.732423 352.708984,145.10156 352.755859,145.546875 L352.755859,145.669922 C352.802735,145.916017 352.92578,146.074218 353.125,146.144531 C353.335939,146.238282 353.58496,146.16797 353.87207,145.933594 C354.159181,145.699218 354.525388,145.59082 354.970703,145.608398 C355.416018,145.625977 355.791014,145.787108 356.095703,146.091797 L356.482422,146.478516 C356.79883,146.794923 356.96582,147.172849 356.983398,147.612305 C357.000977,148.05176 356.88965,148.415038 356.649414,148.702148 C356.409178,148.989259 356.333007,149.23828 356.420898,149.449219 C356.50879,149.660157 356.669921,149.777344 356.904297,149.800781 L357.009766,149.818359 C357.45508,149.865235 357.827147,150.049803 358.125977,150.37207 C358.424806,150.694338 358.574219,151.078123 358.574219,151.523438 L358.574219,152.050781 C358.574219,152.496096 358.427736,152.879881 358.134766,153.202148 C357.841795,153.524416 357.472658,153.708984 357.027344,153.755859 L356.904297,153.773438 C356.658202,153.796875 356.5,153.914061 356.429688,154.125 C356.335937,154.335939 356.365234,154.529296 356.517578,154.705078 L356.587891,154.810547 C356.869142,155.138674 357.000977,155.522459 356.983398,155.961914 C356.96582,156.401369 356.79883,156.779295 356.482422,157.095703 L356.095703,157.482422 C355.791014,157.787111 355.418948,157.948242 354.979492,157.96582 C354.540037,157.983399 354.121096,157.833986 353.722656,157.517578 C353.535155,157.365234 353.335939,157.335937 353.125,157.429688 C352.914061,157.5 352.796875,157.658202 352.773438,157.904297 L352.755859,158.027344 C352.708984,158.472658 352.524416,158.838866 352.202148,159.125977 C351.879881,159.413087 351.496096,159.556641 351.050781,159.556641 L350.523438,159.574219 C350.078123,159.574219 349.694338,159.427736 349.37207,159.134766 C349.049803,158.841795 348.865235,158.472658 348.818359,158.027344 L348.800781,157.904297 C348.777344,157.68164 348.660157,157.523438 348.449219,157.429688 C348.226561,157.335937 348.027345,157.365234 347.851562,157.517578 C347.458982,157.833986 347.040041,157.983399 346.594727,157.96582 C346.155271,157.948242 345.783205,157.787111 345.478516,157.482422 L345.091797,157.095703 C344.775389,156.779295 344.608399,156.401369 344.59082,155.961914 C344.573242,155.522459 344.684569,155.159181 344.924805,154.87207 C345.16504,154.58496 345.238282,154.335939 345.144531,154.125 C345.074218,153.914061 344.916017,153.796875 344.669922,153.773438 L344.546875,153.755859 C344.10156,153.708984 343.732423,153.524416 343.439453,153.202148 C343.146483,152.879881 343,152.496096 343,152.050781 Z" id="twitter-settings"></path>
        </g>
    </g>
</svg>