<?xml version="1.0" encoding="UTF-8"?>
<svg width="16px" height="16px" viewBox="0 0 16 16" version="1.1" xmlns="http://www.w3.org/2000/svg" xmlns:xlink="http://www.w3.org/1999/xlink">
    <!-- Generator: Sketch 44.1 (41455) - http://www.bohemiancoding.com/sketch -->
    <title>twitter-lists-2</title>
    <desc>Created with Sketch.</desc>
    <defs></defs>
    <g id="Page-1" stroke="none" stroke-width="1" fill="none" fill-rule="evenodd">
        <g id="twitter-newui-iconkit" transform="translate(-443.000000, -144.000000)" fill="#AAB8C3">
            <path d="M446.761719,155.074219 L449.75,155.074219 C449.902345,155.074219 450.034179,155.018555 450.145508,154.907227 C450.256836,154.795898 450.3125,154.664063 450.3125,154.511719 C450.3125,154.359374 450.256836,154.22754 450.145508,154.116211 C450.034179,154.004882 449.902345,153.949219 449.75,153.949219 L446.761719,153.949219 C446.609374,153.949219 446.47754,154.004882 446.366211,154.116211 C446.254882,154.22754 446.199219,154.359374 446.199219,154.511719 C446.199219,154.664063 446.254882,154.795898 446.366211,154.907227 C446.47754,155.018555 446.609374,155.074219 446.761719,155.074219 Z M446.761719,152.068359 L454.25,152.068359 C454.402345,152.068359 454.534179,152.015626 454.645508,151.910156 C454.756836,151.804687 454.8125,151.669923 454.8125,151.505859 C454.8125,151.341796 454.756836,151.207032 454.645508,151.101562 C454.534179,150.996093 454.402345,150.943359 454.25,150.943359 L446.761719,150.943359 C446.609374,150.943359 446.47754,150.996093 446.366211,151.101562 C446.254882,151.207032 446.199219,151.341796 446.199219,151.505859 C446.199219,151.669923 446.254882,151.804687 446.366211,151.910156 C446.47754,152.015626 446.609374,152.068359 446.761719,152.068359 Z M446.761719,149.0625 L454.25,149.0625 C454.402345,149.0625 454.534179,149.006836 454.645508,148.895508 C454.756836,148.784179 454.8125,148.652345 454.8125,148.5 C454.8125,148.347655 454.756836,148.215821 454.645508,148.104492 C454.534179,147.993164 454.402345,147.9375 454.25,147.9375 L446.761719,147.9375 C446.609374,147.9375 446.47754,147.993164 446.366211,148.104492 C446.254882,148.215821 446.199219,148.347655 446.199219,148.5 C446.199219,148.652345 446.254882,148.784179 446.366211,148.895508 C446.47754,149.006836 446.609374,149.0625 446.761719,149.0625 Z M444.6875,144 L456.324219,144 C456.781252,144 457.176756,144.166991 457.510742,144.500977 C457.844728,144.834963 458.011719,145.230466 458.011719,145.6875 L458.011719,157.324219 C458.011719,157.781252 457.844728,158.176756 457.510742,158.510742 C457.176756,158.844728 456.781252,159.011719 456.324219,159.011719 L444.6875,159.011719 C444.230466,159.011719 443.834963,158.844728 443.500977,158.510742 C443.166991,158.176756 443,157.781252 443,157.324219 L443,145.6875 C443,145.230466 443.166991,144.834963 443.500977,144.500977 C443.834963,144.166991 444.230466,144 444.6875,144 Z" id="twitter-lists-2"></path>
        </g>
    </g>
</svg>