<?xml version="1.0" encoding="UTF-8"?>
<svg width="17px" height="16px" viewBox="0 0 17 16" version="1.1" xmlns="http://www.w3.org/2000/svg" xmlns:xlink="http://www.w3.org/1999/xlink">
    <!-- Generator: Sketch 44.1 (41455) - http://www.bohemiancoding.com/sketch -->
    <title>twitter-like-outline</title>
    <desc>Created with Sketch.</desc>
    <defs></defs>
    <g id="Page-1" stroke="none" stroke-width="1" fill="none" fill-rule="evenodd">
        <g id="twitter-newui-iconkit" transform="translate(-42.000000, -44.000000)" fill-rule="nonzero" fill="#AAB8C3">
            <path d="M43.55,49.3066406 C43.55,50.3549831 43.8309228,51.4568549 44.3990752,52.6152239 C44.9801994,53.8000403 45.6629425,54.8199405 46.4467805,55.6765634 C47.2415165,56.5450964 48.0414004,57.2630134 48.8456194,57.8310282 C49.6020443,58.3652863 50.1792635,58.6271964 50.5234375,58.6355469 C50.8857966,58.6271819 51.4665843,58.3648085 52.229098,57.8299899 C53.0386256,57.2621962 53.8409313,56.5446411 54.6352508,55.6765634 C55.4190888,54.8199405 56.1018319,53.8000403 56.6829561,52.6152239 C57.2511085,51.4568549 57.5320313,50.3549831 57.5320313,49.3066406 C57.5320313,48.3116325 57.1793093,47.4437842 56.4594442,46.6773091 C55.7461955,45.9178789 54.9433246,45.55 54.0214844,45.55 C52.876208,45.55 51.8750371,46.141601 50.9877937,47.3774044 L50.5410156,47.9997024 L50.0942376,47.3774044 C49.2069941,46.141601 48.2058233,45.55 47.0605469,45.55 C46.1387067,45.55 45.3358357,45.9178789 44.6225871,46.6773091 C43.902722,47.4437842 43.55,48.3116325 43.55,49.3066406 Z M54.0214844,44.45 C55.2559049,44.45 56.3455932,44.9492999 57.261259,45.9242534 C58.1703082,46.8921619 58.6320312,48.0281999 58.6320312,49.3066406 C58.6320312,50.531747 58.3094444,51.797039 57.6705595,53.0996199 C57.0446465,54.3757532 56.3035757,55.4827849 55.4467805,56.4191397 C54.6004667,57.3440398 53.7387266,58.114751 52.8607458,58.730557 C51.935751,59.379338 51.1806146,59.7204742 50.5410156,59.7355469 C49.8832315,59.7204597 49.130386,59.3788602 48.2110212,58.7295187 C47.3394505,58.1139338 46.4811479,57.3435844 45.6352508,56.4191397 C44.7784556,55.4827849 44.0373848,54.3757532 43.4114717,53.0996199 C42.7725868,51.797039 42.45,50.531747 42.45,49.3066406 C42.45,48.0281999 42.911723,46.8921619 43.8207723,45.9242534 C44.736438,44.9492999 45.8261263,44.45 47.0605469,44.45 C48.3829122,44.45 49.5495913,45.0348574 50.5410156,46.1704116 C51.53244,45.0348574 52.6991191,44.45 54.0214844,44.45 Z" id="twitter-like-outline"></path>
        </g>
    </g>
</svg>