<?xml version="1.0" encoding="UTF-8"?>
<svg width="16px" height="16px" viewBox="0 0 16 16" version="1.1" xmlns="http://www.w3.org/2000/svg" xmlns:xlink="http://www.w3.org/1999/xlink">
    <!-- Generator: Sketch 44.1 (41455) - http://www.bohemiancoding.com/sketch -->
    <title>twitter-news</title>
    <desc>Created with Sketch.</desc>
    <defs></defs>
    <g id="Page-1" stroke="none" stroke-width="1" fill="none" fill-rule="evenodd">
        <g id="twitter-newui-iconkit" transform="translate(-293.000000, -144.000000)" fill="#AAB8C3">
            <path d="M302.386719,159.011719 C302.070311,159.011719 301.803712,158.900392 301.586914,158.677734 C301.370116,158.455077 301.261719,158.191408 301.261719,157.886719 L301.261719,153.386719 C301.261719,153.070311 301.370116,152.803712 301.586914,152.586914 C301.803712,152.370116 302.070311,152.261719 302.386719,152.261719 L306.886719,152.261719 C307.191408,152.261719 307.455077,152.370116 307.677734,152.586914 C307.900392,152.803712 308.011719,153.070311 308.011719,153.386719 L308.011719,157.886719 C308.011719,158.191408 307.900392,158.455077 307.677734,158.677734 C307.455077,158.900392 307.191408,159.011719 306.886719,159.011719 L302.386719,159.011719 Z M294.125,159.011719 C293.820311,159.011719 293.556642,158.900392 293.333984,158.677734 C293.111327,158.455077 293,158.191408 293,157.886719 L293,153.386719 C293,153.070311 293.111327,152.803712 293.333984,152.586914 C293.556642,152.370116 293.820311,152.261719 294.125,152.261719 L298.625,152.261719 C298.941408,152.261719 299.208007,152.370116 299.424805,152.586914 C299.641603,152.803712 299.75,153.070311 299.75,153.386719 L299.75,157.886719 C299.75,158.191408 299.641603,158.455077 299.424805,158.677734 C299.208007,158.900392 298.941408,159.011719 298.625,159.011719 L294.125,159.011719 Z M302.386719,150.75 C302.070311,150.75 301.803712,150.641603 301.586914,150.424805 C301.370116,150.208007 301.261719,149.941408 301.261719,149.625 L301.261719,145.125 C301.261719,144.820311 301.370116,144.556642 301.586914,144.333984 C301.803712,144.111327 302.070311,144 302.386719,144 L306.886719,144 C307.191408,144 307.455077,144.111327 307.677734,144.333984 C307.900392,144.556642 308.011719,144.820311 308.011719,145.125 L308.011719,149.625 C308.011719,149.941408 307.900392,150.208007 307.677734,150.424805 C307.455077,150.641603 307.191408,150.75 306.886719,150.75 L302.386719,150.75 Z M294.125,150.75 C293.820311,150.75 293.556642,150.641603 293.333984,150.424805 C293.111327,150.208007 293,149.941408 293,149.625 L293,145.125 C293,144.820311 293.111327,144.556642 293.333984,144.333984 C293.556642,144.111327 293.820311,144 294.125,144 L298.625,144 C298.941408,144 299.208007,144.111327 299.424805,144.333984 C299.641603,144.556642 299.75,144.820311 299.75,145.125 L299.75,149.625 C299.75,149.941408 299.641603,150.208007 299.424805,150.424805 C299.208007,150.641603 298.941408,150.75 298.625,150.75 L294.125,150.75 Z" id="twitter-news"></path>
        </g>
    </g>
</svg>