<?xml version="1.0" encoding="UTF-8"?>
<svg width="17px" height="16px" viewBox="0 0 17 16" version="1.1" xmlns="http://www.w3.org/2000/svg" xmlns:xlink="http://www.w3.org/1999/xlink">
    <!-- Generator: Sketch 44.1 (41455) - http://www.bohemiancoding.com/sketch -->
    <title>twitter-home</title>
    <desc>Created with Sketch.</desc>
    <defs></defs>
    <g id="Page-1" stroke="none" stroke-width="1" fill="none" fill-rule="evenodd">
        <g id="twitter-newui-iconkit" transform="translate(-142.000000, -244.000000)" fill="#AAB8C3">
            <path d="M151.836959,251.628907 C151.836959,251.160154 151.669968,250.758791 151.335982,250.424805 C151.001996,250.090819 150.600633,249.923828 150.131881,249.923828 C149.663128,249.923828 149.261765,250.090819 148.927779,250.424805 C148.593793,250.758791 148.426802,251.160154 148.426802,251.628907 C148.426802,252.097659 148.593793,252.499022 148.927779,252.833008 C149.261765,253.166994 149.663128,253.333985 150.131881,253.333985 C150.600633,253.333985 151.001996,253.166994 151.335982,252.833008 C151.669968,252.499022 151.836959,252.097659 151.836959,251.628907 Z M147.301802,251.628907 C147.301802,250.843746 147.57719,250.175784 148.127974,249.625 C148.678758,249.074216 149.34672,248.798828 150.131881,248.798828 C150.917041,248.798828 151.585003,249.074216 152.135787,249.625 C152.686571,250.175784 152.961959,250.843746 152.961959,251.628907 C152.961959,252.414067 152.686571,253.082029 152.135787,253.632813 C151.585003,254.183597 150.917041,254.458985 150.131881,254.458985 C149.34672,254.458985 148.678758,254.183597 148.127974,253.632813 C147.57719,253.082029 147.301802,252.414067 147.301802,251.628907 Z M146.651412,257.886719 L153.612349,257.886719 C153.811569,257.886719 153.999067,257.833985 154.174849,257.728516 C154.350631,257.623047 154.456099,257.470704 154.491256,257.271485 L155.774459,248.253907 L150.131881,245.212891 L144.489302,248.253907 L145.772506,257.289063 C145.807662,257.488283 145.91313,257.637695 146.088912,257.737305 C146.264694,257.836915 146.452192,257.886719 146.651412,257.886719 Z M153.612349,259.011719 L146.651412,259.011719 C146.147503,259.011719 145.710984,258.868166 145.341841,258.581055 C144.972699,258.293944 144.747115,257.921878 144.665084,257.464844 L143.434615,248.833985 L142.819381,249.150391 C142.737349,249.197266 142.617233,249.220703 142.459029,249.220703 C142.300825,249.220703 142.177779,249.138673 142.089888,248.97461 C142.001997,248.810546 141.97856,248.652345 142.019576,248.5 C142.060592,248.347656 142.151411,248.236329 142.292037,248.166016 L149.868209,244.070313 C150.043991,243.976562 150.21977,243.976562 150.395552,244.070313 L157.971724,248.166016 C158.11235,248.236329 158.206099,248.347656 158.252974,248.5 C158.299849,248.652345 158.282272,248.792968 158.20024,248.921875 C158.129927,249.062501 158.0186,249.15625 157.866256,249.203125 C157.713911,249.250001 157.573287,249.232423 157.444381,249.150391 L156.829146,248.816407 L155.616256,257.447266 C155.522505,257.916018 155.291062,258.293944 154.92192,258.581055 C154.552777,258.868166 154.116258,259.011719 153.612349,259.011719 Z" id="twitter-home"></path>
        </g>
    </g>
</svg>