<?xml version="1.0" encoding="UTF-8"?>
<svg width="15px" height="15px" viewBox="0 0 15 15" version="1.1" xmlns="http://www.w3.org/2000/svg" xmlns:xlink="http://www.w3.org/1999/xlink">
    <!-- Generator: Sketch 44.1 (41455) - http://www.bohemiancoding.com/sketch -->
    <title>twitter-hashtag</title>
    <desc>Created with Sketch.</desc>
    <defs></defs>
    <g id="Page-1" stroke="none" stroke-width="1" fill="none" fill-rule="evenodd">
        <g id="twitter-newui-iconkit" transform="translate(-494.000000, -245.000000)" fill="#AAB8C3">
            <path d="M503.896484,249.934619 L499.150391,249.934619 L498.728516,254.680713 L503.474609,254.680713 L503.896484,249.934619 Z M508.0625,248.809619 C508.226563,248.809619 508.361328,248.865283 508.466797,248.976611 C508.572266,249.08794 508.625,249.219775 508.625,249.372119 C508.625,249.524464 508.572266,249.656298 508.466797,249.767627 C508.361328,249.878956 508.226563,249.934619 508.0625,249.934619 L505.021484,249.934619 L504.599609,254.680713 L507.482422,254.680713 C507.634766,254.680713 507.766601,254.736376 507.87793,254.847705 C507.989258,254.959034 508.044922,255.090868 508.044922,255.243213 C508.044922,255.395557 507.989258,255.527392 507.87793,255.638721 C507.766601,255.750049 507.634766,255.805713 507.482422,255.805713 L504.511719,255.805713 L504.212891,259.1104 C504.201172,259.251026 504.142579,259.371142 504.037109,259.470752 C503.93164,259.570362 503.808594,259.620166 503.667969,259.620166 L503.615234,259.620166 C503.451171,259.596728 503.322266,259.526417 503.228516,259.409229 C503.134765,259.29204 503.09375,259.157276 503.105469,259.004932 L503.386719,255.805713 L498.640625,255.805713 L498.359375,259.1104 C498.335937,259.251026 498.271485,259.371142 498.166016,259.470752 C498.060546,259.570362 497.937501,259.620166 497.796875,259.620166 L497.744141,259.620166 C497.580077,259.596728 497.451172,259.526417 497.357422,259.409229 C497.263671,259.29204 497.222656,259.157276 497.234375,259.004932 L497.515625,255.805713 L494.5625,255.805713 C494.398437,255.805713 494.263672,255.750049 494.158203,255.638721 C494.052734,255.527392 494,255.395557 494,255.243213 C494,255.090868 494.052734,254.959034 494.158203,254.847705 C494.263672,254.736376 494.398437,254.680713 494.5625,254.680713 L497.603516,254.680713 L498.025391,249.934619 L495.142578,249.934619 C494.990234,249.934619 494.858399,249.878956 494.74707,249.767627 C494.635742,249.656298 494.580078,249.524464 494.580078,249.372119 C494.580078,249.219775 494.635742,249.08794 494.74707,248.976611 C494.858399,248.865283 494.990234,248.809619 495.142578,248.809619 L498.113281,248.809619 L498.412109,245.504932 C498.423828,245.352587 498.488281,245.226612 498.605469,245.127002 C498.722657,245.027392 498.860351,244.986377 499.018555,245.003955 C499.176759,245.021533 499.302734,245.088915 499.396484,245.206104 C499.490235,245.323292 499.53125,245.458056 499.519531,245.6104 L499.238281,248.809619 L503.984375,248.809619 L504.265625,245.504932 C504.289063,245.352587 504.359374,245.226612 504.476562,245.127002 C504.593751,245.027392 504.731445,244.986377 504.889648,245.003955 C505.047852,245.021533 505.173828,245.088915 505.267578,245.206104 C505.361329,245.323292 505.402344,245.458056 505.390625,245.6104 L505.109375,248.809619 L508.0625,248.809619 Z" id="twitter-hashtag"></path>
        </g>
    </g>
</svg>