<?xml version="1.0" encoding="UTF-8"?>
<svg width="18px" height="16px" viewBox="0 0 18 16" version="1.1" xmlns="http://www.w3.org/2000/svg" xmlns:xlink="http://www.w3.org/1999/xlink">
    <!-- Generator: Sketch 44.1 (41455) - http://www.bohemiancoding.com/sketch -->
    <title>twitter-alert-4</title>
    <desc>Created with Sketch.</desc>
    <defs></defs>
    <g id="Page-1" stroke="none" stroke-width="1" fill="none" fill-rule="evenodd">
        <g id="twitter-newui-iconkit" transform="translate(-192.000000, -44.000000)" fill="#AAB8C3">
            <path d="M200.739957,58.477344 C201.126678,58.477344 201.463589,58.3513686 201.750699,58.0994143 C202.03781,57.8474599 202.21066,57.5339865 202.269254,57.1589846 L199.21066,57.1589846 C199.269254,57.5339865 199.442104,57.8474599 199.729215,58.0994143 C200.016326,58.3513686 200.353237,58.477344 200.739957,58.477344 Z M196.468473,56.0339846 L204.993863,56.0339846 C204.454798,55.0964799 204.188199,53.9890691 204.194059,52.711719 C204.199918,51.4343688 203.83957,50.4207071 203.113004,49.6707033 C202.480188,49.0378877 201.689181,48.7097659 200.739957,48.6863283 C199.790734,48.7097659 198.999726,49.0378877 198.36691,49.6707033 C197.616907,50.4324259 197.250699,51.4519469 197.268278,52.7292971 C197.285856,54.0066472 197.019257,55.1081987 196.468473,56.0339846 Z M206.171598,57.1589846 L203.394254,57.1589846 C203.33566,57.8386755 203.051483,58.4158181 202.541715,58.8904299 C202.031947,59.3650416 201.431367,59.602344 200.739957,59.602344 C200.048548,59.602344 199.447968,59.3650416 198.938199,58.8904299 C198.428431,58.4158181 198.144254,57.8386755 198.08566,57.1589846 L195.308317,57.1589846 C195.038784,57.1589846 194.857145,57.0300796 194.763395,56.7722658 C194.681363,56.514452 194.751675,56.3035166 194.974332,56.1394533 C195.771211,55.3425743 196.160856,54.1765704 196.143278,52.6414065 C196.125699,51.1062425 196.603234,49.8523488 197.575895,48.8796877 C198.419649,48.0124959 199.474326,47.5789065 200.739957,47.5789065 C202.005589,47.5789065 203.060266,48.0124959 203.90402,48.8796877 C204.876681,49.8523488 205.351285,51.1238205 205.327848,52.6941408 C205.327848,53.6433643 205.465542,54.4138644 205.740934,55.0056643 C206.016326,55.5974641 206.277065,55.97539 206.52316,56.1394533 C206.734099,56.3269543 206.792692,56.5378897 206.698942,56.7722658 C206.61691,57.0300796 206.44113,57.1589846 206.171598,57.1589846 Z M206.646207,51.3933596 L206.628629,51.3933596 C206.476285,51.3816408 206.34738,51.3230476 206.24191,51.2175783 C206.136441,51.1121091 206.083707,50.9773448 206.083707,50.8132815 C206.107145,49.9578084 205.896209,49.2078159 205.450895,48.5632815 C204.993861,47.918747 204.361055,47.4617203 203.552457,47.1921877 C203.400113,47.1335937 203.291715,47.0369149 203.227262,46.9021486 C203.162808,46.7673823 203.156949,46.6267587 203.209684,46.4802736 C203.262418,46.3337885 203.356167,46.2253912 203.490934,46.1550783 C203.6257,46.0847655 203.769253,46.0730468 203.921598,46.1199221 C204.952853,46.4714863 205.764368,47.0691366 206.356168,47.9128908 C206.947968,48.756645 207.232145,49.7351509 207.208707,50.8484377 C207.208707,51.0007822 207.153044,51.1296872 207.041715,51.2351565 C206.930386,51.3406257 206.798552,51.3933596 206.646207,51.3933596 Z M194.833707,51.3933596 C194.681363,51.3933596 194.552458,51.3406257 194.446988,51.2351565 C194.341519,51.1296872 194.282926,51.0007822 194.271207,50.8484377 C194.24777,49.7351509 194.531946,48.756645 195.123746,47.9128908 C195.715546,47.0691366 196.527061,46.4714863 197.558317,46.1199221 C197.710661,46.0730468 197.854214,46.0847655 197.988981,46.1550783 C198.123747,46.2253912 198.217496,46.3337885 198.270231,46.4802736 C198.322965,46.6267587 198.317106,46.7673823 198.252653,46.9021486 C198.188199,47.0369149 198.079802,47.1335937 197.927457,47.1921877 C197.118859,47.4617203 196.488983,47.918747 196.037809,48.5632815 C195.586635,49.2078159 195.37277,49.9578084 195.396207,50.8132815 C195.407926,50.965626 195.361051,51.0974606 195.255582,51.2087893 C195.150113,51.3201179 195.015349,51.3816408 194.851285,51.3933596 L194.833707,51.3933596 Z M208.913785,51.4636721 L208.896207,51.4636721 C208.743863,51.4636721 208.612028,51.4080086 208.500699,51.2966799 C208.389371,51.1853512 208.339567,51.0476573 208.351285,50.883594 C208.374723,49.5124933 208.029023,48.3142631 207.314176,47.2888674 C206.599329,46.2634716 205.597386,45.5339867 204.308317,45.1003908 C204.155972,45.0417968 204.047575,44.9451181 203.983121,44.8103518 C203.918668,44.6755855 203.912809,44.5349619 203.965543,44.3884768 C204.018278,44.2419917 204.112027,44.1335943 204.246793,44.0632815 C204.381559,43.9929686 204.525113,43.98125 204.677457,44.0281252 C206.212621,44.5554716 207.402062,45.4343691 208.245817,46.664844 C209.113008,47.8953189 209.523161,49.3132734 209.476285,50.9187502 C209.464567,51.0710947 209.405973,51.1999997 209.300504,51.305469 C209.195035,51.4109382 209.06613,51.4636721 208.913785,51.4636721 Z M192.583707,51.4636721 L192.566129,51.4636721 C192.413785,51.4636721 192.28488,51.4109382 192.17941,51.305469 C192.073941,51.1999997 192.015348,51.0710947 192.003629,50.9187502 C191.956754,49.3132734 192.363976,47.8923892 193.225309,46.6560549 C194.086641,45.4197206 195.284871,44.5437528 196.820035,44.0281252 C196.960661,43.98125 197.101285,43.9929686 197.24191,44.0632815 C197.382536,44.1335943 197.479215,44.2419917 197.531949,44.3884768 C197.584684,44.5349619 197.575895,44.6755855 197.505582,44.8103518 C197.435269,44.9451181 197.323942,45.0417968 197.171598,45.1003908 C195.882529,45.5339867 194.880586,46.2634716 194.165738,47.2888674 C193.450891,48.3142631 193.105191,49.5124933 193.128629,50.883594 C193.140348,51.0476573 193.090544,51.1853512 192.979215,51.2966799 C192.867886,51.4080086 192.736052,51.4636721 192.583707,51.4636721 Z" id="twitter-alert-4"></path>
        </g>
    </g>
</svg>