<?xml version="1.0" encoding="UTF-8"?>
<svg width="11px" height="16px" viewBox="0 0 11 16" version="1.1" xmlns="http://www.w3.org/2000/svg" xmlns:xlink="http://www.w3.org/1999/xlink">
    <!-- Generator: Sketch 44.1 (41455) - http://www.bohemiancoding.com/sketch -->
    <title>twitter-moments</title>
    <desc>Created with Sketch.</desc>
    <defs></defs>
    <g id="Page-1" stroke="none" stroke-width="1" fill="none" fill-rule="evenodd">
        <g id="twitter-newui-iconkit" transform="translate(-296.000000, -244.000000)" fill="#AAB8C3">
            <path d="M298.447227,259.609375 C298.300742,259.609375 298.204063,259.597656 298.157188,259.574219 C297.899374,259.457031 297.788047,259.257814 297.823203,258.976562 L298.754844,252.578125 L296.557578,252.578125 C296.381796,252.578125 296.238243,252.507813 296.126914,252.367188 C296.015586,252.226562 295.9775,252.080079 296.012656,251.927734 L297.278281,244.474609 C297.29,244.333984 297.348593,244.219727 297.454063,244.131836 C297.559532,244.043945 297.682578,244 297.823203,244 L302.938438,244 C303.125939,244 303.272421,244.070312 303.377891,244.210938 C303.48336,244.351563 303.518516,244.509765 303.48336,244.685547 L302.393516,249.255859 L305.909141,249.255859 C306.131798,249.255859 306.301718,249.361327 306.418906,249.572266 C306.512657,249.783204 306.48336,249.982421 306.331016,250.169922 L298.825156,259.416016 C298.719687,259.544923 298.593712,259.609375 298.447227,259.609375 Z" id="twitter-moments"></path>
        </g>
    </g>
</svg>