<?xml version="1.0" encoding="UTF-8"?>
<svg width="18px" height="17px" viewBox="0 0 18 17" version="1.1" xmlns="http://www.w3.org/2000/svg" xmlns:xlink="http://www.w3.org/1999/xlink">
    <!-- Generator: Sketch 44.1 (41455) - http://www.bohemiancoding.com/sketch -->
    <title>twitter-alert-5</title>
    <desc>Created with Sketch.</desc>
    <defs></defs>
    <g id="Page-1" stroke="none" stroke-width="1" fill="none" fill-rule="evenodd">
        <g id="twitter-newui-iconkit" transform="translate(-192.000000, -94.000000)" fill="#AAB8C3">
            <path d="M200.930601,108.658804 C201.317321,108.658804 201.654232,108.532829 201.941343,108.280875 C202.228454,108.02892 202.401303,107.715447 202.459898,107.340445 L199.401304,107.340445 C199.459898,107.715447 199.632748,108.02892 199.919858,108.280875 C200.206969,108.532829 200.54388,108.658804 200.930601,108.658804 Z M206.362241,107.340445 L203.954038,107.340445 C203.895444,108.125605 203.576111,108.790638 202.99603,109.335562 C202.415949,109.880487 201.72748,110.152945 200.930601,110.152945 C200.133722,110.152945 199.445252,109.880487 198.865171,109.335562 C198.28509,108.790638 197.965757,108.125605 197.907163,107.340445 L195.49896,107.340445 C195.229427,107.340445 195.047789,107.21154 194.954038,106.953726 C194.872007,106.695912 194.942318,106.484977 195.164976,106.320914 C195.961855,105.524035 196.351499,104.358031 196.333921,102.822867 C196.316343,101.287703 196.793877,100.033809 197.766538,99.0611481 C198.610292,98.1939563 199.664969,97.7603668 200.930601,97.7603668 C202.196232,97.7603668 203.250909,98.1939563 204.094663,99.0611481 C205.067324,100.033809 205.541929,101.305281 205.518491,102.875601 C205.518491,103.824825 205.656185,104.595325 205.931577,105.187125 C206.206969,105.778924 206.467709,106.15685 206.713804,106.320914 C206.924742,106.508415 206.983336,106.71935 206.889585,106.953726 C206.807553,107.21154 206.631774,107.340445 206.362241,107.340445 Z M206.836851,101.750601 L206.819273,101.750601 C206.608334,101.750601 206.432554,101.67736 206.291929,101.530875 C206.151303,101.38439 206.080991,101.20568 206.080991,100.994742 C206.104429,100.174425 205.905212,99.4625183 205.483335,98.8589997 C205.061458,98.255481 204.463808,97.8189619 203.690366,97.5494293 C203.491147,97.4791165 203.344664,97.3502115 203.250913,97.1627106 C203.157163,96.9752097 203.145444,96.7877115 203.215757,96.6002106 C203.28607,96.4127097 203.414975,96.2720861 203.602476,96.1783356 C203.789977,96.0845851 203.977475,96.0670072 204.164976,96.1256012 C205.243106,96.5006031 206.092707,97.1216906 206.713804,97.9888825 C207.323182,98.8795119 207.616148,99.8931737 207.59271,101.029898 C207.580991,101.229118 207.50189,101.399038 207.355405,101.539664 C207.20892,101.680289 207.03607,101.750601 206.836851,101.750601 Z M195.560483,101.530875 C195.413998,101.67736 195.238219,101.753531 195.03314,101.75939 C194.828061,101.76525 194.652281,101.694938 194.505796,101.548453 C194.359311,101.401968 194.28021,101.229118 194.268491,101.029898 C194.245054,99.8931737 194.538019,98.8795119 195.147398,97.9888825 C195.768494,97.1216906 196.618095,96.5006031 197.696226,96.1256012 C197.895445,96.0670072 198.088803,96.0845851 198.276304,96.1783356 C198.463805,96.2720861 198.58978,96.4127097 198.654233,96.6002106 C198.718687,96.7877115 198.704039,96.9752097 198.610288,97.1627106 C198.516538,97.3502115 198.370055,97.4791165 198.170835,97.5494293 C197.420831,97.7955243 196.82904,98.2261841 196.395444,98.8414215 C195.961848,99.456659 195.756772,100.174425 195.78021,100.994742 C195.78021,101.20568 195.706969,101.38439 195.560483,101.530875 Z M209.104429,101.838492 L209.086851,101.838492 C208.875912,101.826773 208.697203,101.747672 208.550718,101.601187 C208.404233,101.454702 208.336851,101.275993 208.348569,101.065054 C208.395445,99.7525478 208.070253,98.5982624 207.372983,97.6021637 C206.675714,96.606065 205.700138,95.8912284 204.446226,95.4576325 C204.247006,95.3990384 204.100523,95.2759928 204.006773,95.0884918 C203.913022,94.9009909 203.898374,94.7105631 203.962827,94.5172028 C204.027281,94.3238424 204.153256,94.1802892 204.340757,94.0865387 C204.528258,93.9927882 204.721615,93.9752103 204.920835,94.0338043 C206.479437,94.5611507 207.701104,95.4576261 208.585874,96.7232575 C209.470644,97.9888888 209.889585,99.4478586 209.84271,101.100211 C209.84271,101.311149 209.769469,101.486929 209.622983,101.627554 C209.476498,101.76818 209.303649,101.838492 209.104429,101.838492 Z M192.756773,101.838492 C192.557553,101.838492 192.384703,101.76818 192.238218,101.627554 C192.091733,101.486929 192.012632,101.311149 192.000913,101.100211 C191.977476,99.424421 192.405206,97.9595919 193.284116,96.7056793 C194.163027,95.4517668 195.381765,94.5611507 196.940366,94.0338043 C197.139586,93.9752103 197.332943,93.9927882 197.520444,94.0865387 C197.707945,94.1802892 197.833921,94.3238424 197.898374,94.5172028 C197.962828,94.7105631 197.948179,94.9009909 197.854429,95.0884918 C197.760678,95.2759928 197.614195,95.3990384 197.414976,95.4576325 C196.161063,95.8912284 195.185487,96.606065 194.488218,97.6021637 C193.790949,98.5982624 193.465757,99.7525478 193.512632,101.065054 C193.512632,101.275993 193.44232,101.454702 193.301694,101.601187 C193.161069,101.747672 192.985289,101.826773 192.774351,101.838492 L192.756773,101.838492 Z" id="twitter-alert-5"></path>
        </g>
    </g>
</svg>