<?xml version="1.0" encoding="UTF-8"?>
<svg width="15px" height="15px" viewBox="0 0 15 15" version="1.1" xmlns="http://www.w3.org/2000/svg" xmlns:xlink="http://www.w3.org/1999/xlink">
    <!-- Generator: Sketch 44.1 (41455) - http://www.bohemiancoding.com/sketch -->
    <title>twitter-check-2</title>
    <desc>Created with Sketch.</desc>
    <defs></defs>
    <g id="Page-1" stroke="none" stroke-width="1" fill="none" fill-rule="evenodd">
        <g id="twitter-newui-iconkit" transform="translate(-493.000000, -95.000000)" fill="#AAB8C3">
            <path d="M493.5625,100.755448 C493.410155,100.755448 493.278321,100.699785 493.166992,100.588456 C493.055664,100.477127 493,100.345293 493,100.192948 C493,100.040604 493.055664,99.9087692 493.166992,99.7974405 C493.278321,99.6861118 493.410155,99.6304483 493.5625,99.6304483 L498.958984,99.6304483 C499.123048,99.6304483 499.257812,99.6831821 499.363281,99.7886514 C499.468751,99.8941207 499.521484,100.025955 499.521484,100.184159 C499.521484,100.342363 499.465821,100.477127 499.354492,100.588456 C499.243164,100.699785 499.111329,100.755448 498.958984,100.755448 L493.5625,100.755448 Z M493.5625,97.6616983 C493.410155,97.6616983 493.278321,97.6060348 493.166992,97.4947061 C493.055664,97.3833774 493,97.2515428 493,97.0991983 C493,96.9468538 493.055664,96.8150192 493.166992,96.7036905 C493.278321,96.5923618 493.410155,96.5366983 493.5625,96.5366983 L502.052734,96.5366983 C502.205079,96.5366983 502.336914,96.5923618 502.448242,96.7036905 C502.559571,96.8150192 502.615234,96.9468538 502.615234,97.0991983 C502.615234,97.2515428 502.559571,97.3833774 502.448242,97.4947061 C502.336914,97.6060348 502.205079,97.6616983 502.052734,97.6616983 L493.5625,97.6616983 Z M493.298828,104.332597 C493.298828,104.174393 493.354492,104.039629 493.46582,103.9283 C493.577149,103.816971 493.708984,103.761308 493.861328,103.761308 C494.013673,103.761308 494.148437,103.819901 494.265625,103.937089 L498.115234,107.804276 L506.992188,95.235917 C507.085938,95.1070101 507.206054,95.030839 507.352539,95.0074014 C507.499024,94.9839638 507.636718,95.01619 507.765625,95.1040811 C507.894532,95.1919722 507.973633,95.3150178 508.00293,95.4732217 C508.032227,95.6314256 508,95.7691196 507.90625,95.8863077 L498.660156,108.999589 C498.542968,109.140215 498.396485,109.213456 498.220703,109.219315 C498.044921,109.225175 497.904297,109.175371 497.798828,109.069901 L493.457031,104.728105 C493.351562,104.622635 493.298828,104.490801 493.298828,104.332597 Z" id="twitter-check-2"></path>
        </g>
    </g>
</svg>