<?xml version="1.0" encoding="UTF-8"?>
<svg width="15px" height="15px" viewBox="0 0 15 15" version="1.1" xmlns="http://www.w3.org/2000/svg" xmlns:xlink="http://www.w3.org/1999/xlink">
    <!-- Generator: Sketch 44.1 (41455) - http://www.bohemiancoding.com/sketch -->
    <title>twitter-globe-2</title>
    <desc>Created with Sketch.</desc>
    <defs></defs>
    <g id="Page-1" stroke="none" stroke-width="1" fill="none" fill-rule="evenodd">
        <g id="twitter-newui-iconkit" transform="translate(-394.000000, -244.000000)" fill="#AAB8C3">
            <path d="M398.78125,250.117188 C398.699218,250.421877 398.655273,250.65332 398.649414,250.811523 C398.643555,250.969727 398.705077,251.166014 398.833984,251.400391 C399.337893,251.751955 399.627929,251.995117 399.704102,252.129883 C399.780274,252.264649 399.882812,252.876948 400.011719,253.966797 L400.064453,254.476562 C400.123047,254.371093 400.257811,254.086916 400.46875,253.624023 C400.679689,253.16113 400.826171,252.876954 400.908203,252.771484 C401.048829,252.560546 401.324217,252.291017 401.734375,251.962891 C401.839844,251.658202 401.857422,251.426759 401.787109,251.268555 C401.716797,251.110351 401.541017,250.911134 401.259766,250.670898 C400.978514,250.430663 400.773438,250.28125 400.644531,250.222656 L400.169922,250.222656 C399.466793,250.199219 399.009767,250.164063 398.798828,250.117188 L398.78125,250.117188 Z M407.394531,251.453125 L407.851562,251.083984 C407.792968,250.134761 407.535159,249.250004 407.078125,248.429688 C406.621091,247.609371 406.023441,246.92969 405.285156,246.390625 C404.863279,246.484375 404.51172,246.578125 404.230469,246.671875 L404.388672,246.865234 C404.822268,247.345706 405.003907,247.744139 404.933594,248.060547 C404.921875,248.166016 404.857422,248.333007 404.740234,248.561523 C404.623046,248.79004 404.582031,248.945312 404.617188,249.027344 C404.722657,249.226563 405.138668,249.437499 405.865234,249.660156 C406.193361,249.789063 406.386718,249.882812 406.445312,249.941406 C406.621095,250.10547 406.937498,250.609371 407.394531,251.453125 Z M400.662109,245.722656 L400.521484,245.212891 C399.630855,245.353516 398.810551,245.66699 398.060547,246.15332 C397.310543,246.639651 396.689456,247.24609 396.197266,247.972656 L397.533203,248.464844 C397.931643,247.644527 398.183593,247.178711 398.289062,247.067383 C398.394532,246.956054 398.587889,246.827149 398.869141,246.680664 C399.150392,246.534179 399.358398,246.422852 399.493164,246.34668 C399.62793,246.270507 399.759765,246.200196 399.888672,246.135742 C400.017579,246.071289 400.275389,245.933595 400.662109,245.722656 Z M400.134766,256.216797 C399.982421,256.216797 399.859375,256.196289 399.765625,256.155273 C399.51953,256.049804 399.285157,255.771487 399.0625,255.320312 C399.015625,255.167968 398.948243,254.705082 398.860352,253.931641 C398.77246,253.158199 398.722656,252.753906 398.710938,252.71875 C398.476561,252.51953 398.271485,252.367188 398.095703,252.261719 L397.9375,252.103516 C397.64453,251.529294 397.503906,251.086916 397.515625,250.776367 C397.527344,250.465819 397.597656,250.123049 397.726562,249.748047 C396.882808,249.443358 396.191409,249.185548 395.652344,248.974609 C395.300779,249.783207 395.125,250.626949 395.125,251.505859 C395.125,253.263681 395.749017,254.766595 396.99707,256.014648 C398.245123,257.262702 399.701164,257.886719 401.365234,257.886719 C403.029305,257.886719 404.453119,257.376958 405.636719,256.357422 C406.820318,255.337886 407.535155,254.066414 407.78125,252.542969 C407.570311,252.648438 407.350587,252.701172 407.12207,252.701172 C406.893554,252.701172 406.714844,252.578126 406.585938,252.332031 L406.462891,252.121094 C406.134764,251.476559 405.882813,251.04297 405.707031,250.820312 C405.660156,250.785156 405.578126,250.75 405.460938,250.714844 C404.488276,250.363279 403.878907,249.982424 403.632812,249.572266 C403.398436,249.150389 403.45117,248.605472 403.791016,247.9375 L403.791016,247.902344 L403.5625,247.621094 C403.035154,247.07031 402.865233,246.589846 403.052734,246.179688 C403.158204,245.95703 403.433592,245.763673 403.878906,245.599609 C403.175778,245.306639 402.437504,245.154297 401.664062,245.142578 C401.816407,245.705081 401.836915,246.077148 401.725586,246.258789 C401.614257,246.440431 401.303713,246.663085 400.793945,246.926758 C400.284177,247.190431 399.994141,247.345703 399.923828,247.392578 L399.431641,247.65625 C399.24414,247.75 399.135742,247.817383 399.106445,247.858398 C399.077148,247.899414 398.904298,248.236325 398.587891,248.869141 C398.810548,248.951172 398.96582,249.000976 399.053711,249.018555 C399.141602,249.036133 399.525387,249.0625 400.205078,249.097656 C400.591799,249.097656 400.826171,249.109375 400.908203,249.132812 C401.142579,249.179688 401.485349,249.390623 401.936523,249.765625 C402.387698,250.140627 402.674804,250.483397 402.797852,250.793945 C402.920899,251.104494 402.950196,251.473631 402.885742,251.901367 C402.821289,252.329104 402.689454,252.624999 402.490234,252.789062 C402.208983,253.000001 401.986329,253.205077 401.822266,253.404297 C401.798828,253.47461 401.61426,253.864254 401.268555,254.573242 C400.92285,255.28223 400.685548,255.733397 400.556641,255.926758 C400.427734,256.120118 400.28711,256.216797 400.134766,256.216797 Z M401.505859,244 C403.56837,244 405.334954,244.735344 406.805664,246.206055 C408.276375,247.676765 409.011719,249.443349 409.011719,251.505859 C409.011719,253.56837 408.276375,255.334954 406.805664,256.805664 C405.334954,258.276375 403.56837,259.011719 401.505859,259.011719 C399.443349,259.011719 397.676765,258.276375 396.206055,256.805664 C394.735344,255.334954 394,253.56837 394,251.505859 C394,249.443349 394.735344,247.676765 396.206055,246.206055 C397.676765,244.735344 399.443349,244 401.505859,244 Z" id="twitter-globe-2"></path>
        </g>
    </g>
</svg>