<?xml version="1.0" encoding="UTF-8"?>
<svg width="17px" height="17px" viewBox="0 0 17 17" version="1.1" xmlns="http://www.w3.org/2000/svg" xmlns:xlink="http://www.w3.org/1999/xlink">
    <!-- Generator: Sketch 44.1 (41455) - http://www.bohemiancoding.com/sketch -->
    <title>twitter-reply-outline</title>
    <desc>Created with Sketch.</desc>
    <defs></defs>
    <g id="Page-1" stroke="none" stroke-width="1" fill="none" fill-rule="evenodd">
        <g id="twitter-newui-iconkit" transform="translate(-43.000000, -93.000000)" fill-rule="nonzero" fill="#AAB8C3">
            <path d="M56.0459616,104.285332 C56.7921011,103.653564 57.347544,102.957912 57.7172237,102.197122 C58.0855962,101.439022 58.2683594,100.66559 58.2683594,99.8710938 C58.2683594,98.3581064 57.760443,97.1159482 56.734173,96.0949957 C55.7071943,95.0733381 54.4612336,94.5675781 52.9617365,94.5675693 L49.8535156,94.55 C48.3577192,94.55 47.1121689,95.0582267 46.0851978,96.0851978 C45.0572715,97.1131241 44.55,98.3326784 44.55,99.7744141 C44.55,101.217264 45.0258104,102.393718 45.9852729,103.337365 C46.9517523,104.287913 48.1566475,104.787311 49.6274815,104.840991 L50.1574219,104.860332 L50.1574219,108.255859 C53.303319,106.276847 55.2696,104.942689 56.0459616,104.285332 Z M45.2139459,104.121619 C44.0405852,102.9676 43.45,101.507362 43.45,99.7744141 C43.45,98.0403526 44.0735766,96.5411841 45.3073803,95.3073803 C46.5421393,94.0726214 48.0680456,93.45 49.8566229,93.4500088 L52.9648438,93.4675781 C54.7497203,93.4675781 56.2752163,94.0868069 57.5099676,95.3151606 C58.7454277,96.5442193 59.3683594,98.0676584 59.3683594,99.8535156 C59.3683594,100.834419 59.1468297,101.771907 58.7066044,102.677878 C58.2676863,103.581158 57.6161101,104.39721 56.7567727,105.124824 C55.9276576,105.826849 53.9389001,107.176258 50.7602494,109.196868 C50.5696315,109.316004 50.3445035,109.368359 50.0908203,109.368359 C49.740831,109.368359 49.442577,109.201046 49.2606595,108.902182 C49.1303242,108.688059 49.0574219,108.47456 49.0574219,108.255859 L49.0574219,105.90321 C47.5476894,105.745527 46.2599328,105.150365 45.2139459,104.121619 Z" id="twitter-reply-outline"></path>
        </g>
    </g>
</svg>