<?xml version="1.0" encoding="UTF-8"?>
<svg width="16px" height="15px" viewBox="0 0 16 15" version="1.1" xmlns="http://www.w3.org/2000/svg" xmlns:xlink="http://www.w3.org/1999/xlink">
    <!-- Generator: Sketch 44.1 (41455) - http://www.bohemiancoding.com/sketch -->
    <title>twitter-book</title>
    <desc>Created with Sketch.</desc>
    <defs></defs>
    <g id="Page-1" stroke="none" stroke-width="1" fill="none" fill-rule="evenodd">
        <g id="twitter-newui-iconkit" transform="translate(-443.000000, -195.000000)" fill="#AAB8C3">
            <path d="M456.869141,196.242188 L451.085938,198.175782 L451.085938,208.511719 L456.869141,206.578125 L456.869141,196.242188 Z M444.160156,206.578125 L449.925781,208.511719 L449.925781,198.158204 L444.160156,196.242188 L444.160156,206.578125 Z M458.011719,195.960938 L458.011719,206.736329 C458.011719,206.947267 457.953126,207.134765 457.835938,207.298829 C457.718749,207.462892 457.560548,207.574219 457.361328,207.632813 L450.681641,209.865235 L450.505859,209.882813 L450.330078,209.865235 L443.650391,207.632813 C443.46289,207.574219 443.307618,207.459962 443.18457,207.290039 C443.061523,207.120117 443,206.935548 443,206.736329 L443,195.960938 C443,195.632811 443.131835,195.375001 443.395508,195.1875 C443.659181,194.999999 443.949217,194.953125 444.265625,195.046875 L450.505859,197.138672 L456.763672,195.046875 C457.08008,194.953125 457.367186,194.999999 457.625,195.1875 C457.882814,195.375001 458.011719,195.632811 458.011719,195.960938 Z" id="twitter-book"></path>
        </g>
    </g>
</svg>