<?xml version="1.0" encoding="UTF-8"?>
<svg width="18px" height="17px" viewBox="0 0 18 17" version="1.1" xmlns="http://www.w3.org/2000/svg" xmlns:xlink="http://www.w3.org/1999/xlink">
    <!-- Generator: Sketch 44.1 (41455) - http://www.bohemiancoding.com/sketch -->
    <title>twitter-newtweet</title>
    <desc>Created with Sketch.</desc>
    <defs></defs>
    <g id="Page-1" stroke="none" stroke-width="1" fill="none" fill-rule="evenodd">
        <g id="twitter-newui-iconkit" transform="translate(-292.000000, -44.000000)" fill="#AAB8C3">
            <path d="M296.201172,47.7441406 L298.591797,47.7441406 C299.095706,47.7441406 299.347656,47.9199201 299.347656,48.2714844 C299.347656,48.4472665 299.286133,48.5908198 299.163086,48.7021484 C299.040038,48.8134771 298.902345,48.8691406 298.75,48.8691406 L296.271484,48.8691406 L296.271484,51.4179688 C296.271484,51.8164082 296.072268,52.015625 295.673828,52.015625 C295.498046,52.015625 295.354493,51.9541022 295.243164,51.8310547 C295.131835,51.7080072 295.076172,51.5703133 295.076172,51.4179688 L295.076172,48.9394531 L292.597656,48.9394531 C292.199217,48.9394531 292,48.7402364 292,48.3417969 C292,48.1660147 292.061523,48.0224615 292.18457,47.9111328 C292.307618,47.7998041 292.445312,47.7441406 292.597656,47.7441406 L295.076172,47.7441406 L295.076172,45.265625 C295.076172,44.8671855 295.251951,44.6679688 295.603516,44.6679688 C295.779298,44.6679688 295.922851,44.7294916 296.03418,44.8525391 C296.145508,44.9755866 296.201172,45.1132805 296.201172,45.265625 L296.201172,47.7441406 Z M309.841797,44 L309.841797,44.0703125 C309.917969,44.1875006 309.935547,44.509763 309.894531,45.0371094 C309.847656,45.5644558 309.783204,46.0068342 309.701172,46.3642578 C309.61914,46.7216815 309.472657,47.0849591 309.261719,47.4541016 C309.05078,47.823244 308.79297,48.1191395 308.488281,48.3417969 C307.878903,48.7402364 307.128911,49.0449208 306.238281,49.2558594 C305.230464,49.4316415 304.357426,49.8535123 303.619141,50.5214844 C304.111331,50.6738289 304.539061,50.75 304.902344,50.75 L306.466797,50.5917969 C306.390625,50.738282 306.206056,50.9550767 305.913086,51.2421875 C305.614256,51.5234389 305.294924,51.7724599 304.955078,51.9892578 C304.615233,52.2060558 304.140628,52.4404284 303.53125,52.6923828 C302.921872,52.9443372 302.25391,53.1464836 301.527344,53.2988281 C300.695308,53.9550814 299.713873,55.150382 298.583008,56.8847656 C298.284178,57.3417992 298.020509,57.7665996 297.791992,58.1591797 C297.563475,58.5517598 297.302736,58.9912085 297.009766,59.4775391 C296.716795,59.9638696 296.543946,60.2041016 296.491211,60.1982422 C296.438476,60.1923828 296.40332,60.1191413 296.385742,59.9785156 C296.338867,59.6093732 296.494139,58.847662 296.851562,57.6933594 C297.208986,56.5390567 297.917963,54.8984481 298.978516,52.7714844 C299.505862,51.7050728 300.112301,50.7207076 300.797852,49.8183594 C301.483402,48.9160111 302.154294,48.1718779 302.810547,47.5859375 C303.4668,46.9999971 304.143551,46.4785179 304.84082,46.0214844 C305.959967,45.2890588 307.008784,44.7705093 307.987305,44.4658203 C308.971685,44.1552719 309.566405,44 309.771484,44 L309.841797,44 Z" id="twitter-newtweet"></path>
        </g>
    </g>
</svg>