<?xml version="1.0" encoding="UTF-8"?>
<svg width="14px" height="15px" viewBox="0 0 14 15" version="1.1" xmlns="http://www.w3.org/2000/svg" xmlns:xlink="http://www.w3.org/1999/xlink">
    <!-- Generator: Sketch 44.1 (41455) - http://www.bohemiancoding.com/sketch -->
    <title>twitter-align</title>
    <desc>Created with Sketch.</desc>
    <defs></defs>
    <g id="Page-1" stroke="none" stroke-width="1" fill="none" fill-rule="evenodd">
        <g id="twitter-newui-iconkit" transform="translate(-494.000000, -195.000000)" fill="#AAB8C3">
            <path d="M495.125,201.046875 L507.675781,201.046875 C507.816407,201.046875 507.886719,201.117187 507.886719,201.257812 L507.886719,202.980469 C507.886719,203.121094 507.816407,203.191406 507.675781,203.191406 L495.125,203.191406 L495.125,204.316406 L503.052734,204.316406 C503.09961,204.316406 503.146484,204.336914 503.193359,204.37793 C503.240235,204.418946 503.263672,204.46875 503.263672,204.527344 L503.263672,206.267578 C503.263672,206.314453 503.240235,206.361328 503.193359,206.408203 C503.146484,206.455078 503.09961,206.478516 503.052734,206.478516 L495.125,206.478516 L495.125,208.675781 C495.125,208.828126 495.069336,208.95996 494.958008,209.071289 C494.846679,209.182618 494.714845,209.238281 494.5625,209.238281 C494.410155,209.238281 494.278321,209.182618 494.166992,209.071289 C494.055664,208.95996 494,208.828126 494,208.675781 L494,195.5625 C494,195.410155 494.055664,195.278321 494.166992,195.166992 C494.278321,195.055664 494.410155,195 494.5625,195 C494.714845,195 494.846679,195.055664 494.958008,195.166992 C495.069336,195.278321 495.125,195.410155 495.125,195.5625 L495.125,197.777344 L505.355469,197.777344 C505.496094,197.777344 505.566406,197.841796 505.566406,197.970703 L505.566406,199.710938 C505.566406,199.851563 505.496094,199.921875 505.355469,199.921875 L495.125,199.921875 L495.125,201.046875 Z" id="twitter-align"></path>
        </g>
    </g>
</svg>