<?xml version="1.0" encoding="UTF-8"?>
<svg width="14px" height="15px" viewBox="0 0 14 15" version="1.1" xmlns="http://www.w3.org/2000/svg" xmlns:xlink="http://www.w3.org/1999/xlink">
    <!-- Generator: Sketch 44.1 (41455) - http://www.bohemiancoding.com/sketch -->
    <title>twitter-location</title>
    <desc>Created with Sketch.</desc>
    <defs></defs>
    <g id="Page-1" stroke="none" stroke-width="1" fill="none" fill-rule="evenodd">
        <g id="twitter-newui-iconkit" transform="translate(-144.000000, -194.000000)" fill="#AAB8C3">
            <path d="M150.521484,198.693359 C150.041013,198.693359 149.633791,198.86035 149.299805,199.194336 C148.965819,199.528322 148.798828,199.932615 148.798828,200.407227 C148.798828,200.881838 148.968748,201.286131 149.308594,201.620117 C149.648439,201.954103 150.052732,202.121094 150.521484,202.121094 C150.990237,202.121094 151.39453,201.954103 151.734375,201.620117 C152.07422,201.286131 152.244141,200.881838 152.244141,200.407227 C152.244141,199.932615 152.07715,199.528322 151.743164,199.194336 C151.409178,198.86035 151.001956,198.693359 150.521484,198.693359 Z M150.521484,203.246094 C149.736324,203.246094 149.065432,202.967776 148.508789,202.411133 C147.952146,201.854489 147.673828,201.183598 147.673828,200.398438 C147.673828,199.613277 147.952146,198.945315 148.508789,198.394531 C149.065432,197.843747 149.736324,197.568359 150.521484,197.568359 C151.306645,197.568359 151.977536,197.843747 152.53418,198.394531 C153.090823,198.945315 153.369141,199.613277 153.369141,200.398438 C153.369141,201.183598 153.090823,201.854489 152.53418,202.411133 C151.977536,202.967776 151.306645,203.246094 150.521484,203.246094 Z M155.917969,200.521484 C155.917969,199.033196 155.39063,197.761724 154.335938,196.707031 C153.281245,195.652338 152.009773,195.125 150.521484,195.125 C149.033196,195.125 147.761724,195.652338 146.707031,196.707031 C145.652338,197.761724 145.125,199.033196 145.125,200.521484 C145.125,201.728522 145.482418,202.806636 146.197266,203.755859 C146.806644,204.517582 148.248036,205.841787 150.521484,207.728516 C152.794933,205.841787 154.236325,204.517582 154.845703,203.755859 C155.56055,202.806636 155.917969,201.728522 155.917969,200.521484 Z M157.042969,200.521484 C157.042969,201.962898 156.609379,203.269525 155.742188,204.441406 L155.724609,204.441406 L155.724609,204.458984 C155.255857,205.074222 154.312507,205.991205 152.894531,207.209961 C152.519529,207.532228 152.194337,207.804686 151.918945,208.027344 C151.643553,208.250001 151.400392,208.449218 151.189453,208.625 L150.873047,208.888672 C150.755859,208.970704 150.638672,209.011719 150.521484,209.011719 C150.404296,209.011719 150.28711,208.970704 150.169922,208.888672 L149.853516,208.625 C149.642577,208.449218 149.399415,208.250001 149.124023,208.027344 C148.415036,207.453122 147.679691,206.811527 146.917969,206.102539 C146.156246,205.399411 145.623048,204.845705 145.318359,204.441406 C144.439449,203.281244 144,201.974617 144,200.521484 C144,198.728507 144.638665,197.193366 145.916016,195.916016 C147.193366,194.638665 148.731436,194 150.530273,194 C152.329111,194 153.864251,194.638665 155.135742,195.916016 C156.407233,197.193366 157.042969,198.728507 157.042969,200.521484 Z" id="twitter-location"></path>
        </g>
    </g>
</svg>