<?xml version="1.0" encoding="UTF-8"?>
<svg width="12px" height="15px" viewBox="0 0 12 15" version="1.1" xmlns="http://www.w3.org/2000/svg" xmlns:xlink="http://www.w3.org/1999/xlink">
    <!-- Generator: Sketch 44.1 (41455) - http://www.bohemiancoding.com/sketch -->
    <title>twitter-flag</title>
    <desc>Created with Sketch.</desc>
    <defs></defs>
    <g id="Page-1" stroke="none" stroke-width="1" fill="none" fill-rule="evenodd">
        <g id="twitter-newui-iconkit" transform="translate(-445.000000, -244.000000)" fill="#AAB8C3">
            <path d="M447.777344,252.859375 C448.363284,252.859375 449.33886,252.663088 450.704102,252.270508 C452.069343,251.877928 453.083005,251.681641 453.745117,251.681641 C454.40723,251.681641 454.990232,251.76953 455.494141,251.945312 L455.494141,245.845703 C454.978513,245.599608 454.430667,245.476562 453.850586,245.476562 C453.270505,245.476562 452.312507,245.664061 450.976562,246.039062 C449.6289,246.449221 448.615238,246.654297 447.935547,246.654297 C447.255856,246.654297 446.652346,246.566407 446.125,246.390625 L446.125,252.490234 C446.640628,252.736329 447.191403,252.859375 447.777344,252.859375 Z M456.056641,244 C456.208985,244 456.34082,244.055664 456.452148,244.166992 C456.563477,244.278321 456.619141,244.410155 456.619141,244.5625 L456.619141,258.449219 C456.619141,258.601563 456.563477,258.733398 456.452148,258.844727 C456.34082,258.956055 456.208985,259.011719 456.056641,259.011719 C455.904296,259.011719 455.772461,258.956055 455.661133,258.844727 C455.549804,258.733398 455.494141,258.601563 455.494141,258.449219 L455.494141,253.175781 C454.978513,252.929686 454.430667,252.806641 453.850586,252.806641 C453.270505,252.806641 452.291999,253.002928 450.915039,253.395508 C449.538079,253.788088 448.442387,253.984375 447.62793,253.984375 C446.813472,253.984375 446.031254,253.761721 445.28125,253.316406 C445.093749,253.199218 445,253.035157 445,252.824219 L445,245.511719 C445,245.30078 445.093749,245.136719 445.28125,245.019531 C445.468751,244.902343 445.656249,244.902343 445.84375,245.019531 C446.417972,245.359377 447.050778,245.529297 447.742188,245.529297 C448.433597,245.529297 449.4414,245.33301 450.765625,244.94043 C452.08985,244.54785 453.074216,244.351562 453.71875,244.351562 C454.363284,244.351562 454.955075,244.445312 455.494141,244.632812 L455.494141,244.5625 C455.494141,244.410155 455.549804,244.278321 455.661133,244.166992 C455.772461,244.055664 455.904296,244 456.056641,244 Z" id="twitter-flag"></path>
        </g>
    </g>
</svg>