<?xml version="1.0" encoding="UTF-8"?>
<svg width="14px" height="16px" viewBox="0 0 14 16" version="1.1" xmlns="http://www.w3.org/2000/svg" xmlns:xlink="http://www.w3.org/1999/xlink">
    <!-- Generator: Sketch 44.1 (41455) - http://www.bohemiancoding.com/sketch -->
    <title>twitter-globe-3</title>
    <desc>Created with Sketch.</desc>
    <defs></defs>
    <g id="Page-1" stroke="none" stroke-width="1" fill="none" fill-rule="evenodd">
        <g id="twitter-newui-iconkit" transform="translate(-545.000000, -144.000000)" fill="#AAB8C3">
            <path d="M548.375,151.382812 C548.222655,151.382812 548.090821,151.327149 547.979492,151.21582 C547.868164,151.104492 547.8125,150.972657 547.8125,150.820312 C547.8125,149.707026 548.178707,148.760746 548.911133,147.981445 C549.643558,147.202145 550.525385,146.8125 551.556641,146.8125 C551.708985,146.8125 551.84082,146.868164 551.952148,146.979492 C552.063477,147.090821 552.119141,147.222655 552.119141,147.375 C552.119141,147.527345 552.066407,147.659179 551.960938,147.770508 C551.855468,147.881836 551.720704,147.9375 551.556641,147.9375 C550.841793,147.9375 550.226565,148.218747 549.710938,148.78125 C549.19531,149.343753 548.9375,150.023434 548.9375,150.820312 C548.9375,150.972657 548.881836,151.104492 548.770508,151.21582 C548.659179,151.327149 548.527345,151.382812 548.375,151.382812 Z M551.556641,156.498047 C553.056648,156.498047 554.336909,155.944341 555.397461,154.836914 C556.458013,153.729487 556.988281,152.390633 556.988281,150.820312 C556.988281,149.249992 556.458013,147.908209 555.397461,146.794922 C554.336909,145.681635 553.056648,145.125 551.556641,145.125 C550.056633,145.125 548.776372,145.681635 547.71582,146.794922 C546.655268,147.908209 546.125,149.249992 546.125,150.820312 C546.125,152.390633 546.655268,153.729487 547.71582,154.836914 C548.776372,155.944341 550.056633,156.498047 551.556641,156.498047 Z M558.113281,150.688477 C558.113281,152.487314 557.568365,154.028314 556.478516,155.311523 C555.388666,156.594733 554.035164,157.347655 552.417969,157.570312 L553.683594,158.941406 C553.800782,159.058594 553.827149,159.193359 553.762695,159.345703 C553.698242,159.498048 553.583985,159.574219 553.419922,159.574219 L549.693359,159.574219 C549.529296,159.574219 549.417969,159.498048 549.359375,159.345703 C549.289062,159.193359 549.312499,159.058594 549.429688,158.941406 L550.695312,157.570312 C549.078117,157.347655 547.724615,156.594733 546.634766,155.311523 C545.544916,154.028314 545,152.487314 545,150.688477 C545,148.889639 545.641595,147.325202 546.924805,145.995117 C548.208014,144.665032 549.751944,144 551.556641,144 C553.361337,144 554.905267,144.665032 556.188477,145.995117 C557.471686,147.325202 558.113281,148.889639 558.113281,150.688477 Z" id="twitter-globe-3"></path>
        </g>
    </g>
</svg>