<?xml version="1.0" encoding="UTF-8"?>
<svg width="17px" height="16px" viewBox="0 0 17 16" version="1.1" xmlns="http://www.w3.org/2000/svg" xmlns:xlink="http://www.w3.org/1999/xlink">
    <!-- Generator: Sketch 44.1 (41455) - http://www.bohemiancoding.com/sketch -->
    <title>twitter-newmessage</title>
    <desc>Created with Sketch.</desc>
    <defs></defs>
    <g id="Page-1" stroke="none" stroke-width="1" fill="none" fill-rule="evenodd">
        <g id="twitter-newui-iconkit" transform="translate(-243.000000, -94.000000)" fill="#AAB8C3">
            <path d="M256.675781,101.541016 C256.828126,101.541016 256.95996,101.596679 257.071289,101.708008 C257.182618,101.819336 257.238281,101.951171 257.238281,102.103516 L257.238281,108.167969 C257.238281,108.636721 257.071291,109.035155 256.737305,109.363281 C256.403319,109.691408 256.007815,109.855469 255.550781,109.855469 L244.6875,109.855469 C244.218748,109.855469 243.820314,109.691408 243.492188,109.363281 C243.164061,109.035155 243,108.636721 243,108.167969 L243,98.078125 C243,97.6093727 243.164061,97.2109391 243.492188,96.8828125 C243.820314,96.5546859 244.218748,96.390625 244.6875,96.390625 L251.507812,96.390625 C251.660157,96.390625 251.791992,96.4462885 251.90332,96.5576172 C252.014649,96.6689459 252.070312,96.8007805 252.070312,96.953125 C252.070312,97.1054695 252.014649,97.2373041 251.90332,97.3486328 C251.791992,97.4599615 251.660157,97.515625 251.507812,97.515625 L244.6875,97.515625 C244.535155,97.515625 244.403321,97.5683588 244.291992,97.6738281 C244.180664,97.7792974 244.125,97.9140617 244.125,98.078125 L244.125,98.8515625 L249.802734,102.648438 C250.001954,102.777344 250.20703,102.777344 250.417969,102.648438 L253.810547,100.398438 C253.939454,100.316406 254.077148,100.287109 254.223633,100.310547 C254.370118,100.333984 254.484375,100.410156 254.566406,100.539062 C254.648438,100.667969 254.677734,100.805663 254.654297,100.952148 C254.630859,101.098634 254.554688,101.21289 254.425781,101.294922 L251.015625,103.5625 C250.734374,103.750001 250.438478,103.84375 250.12793,103.84375 C249.817381,103.84375 249.509767,103.750001 249.205078,103.5625 L244.125,100.169922 L244.125,108.167969 C244.125,108.332032 244.180664,108.466796 244.291992,108.572266 C244.403321,108.677735 244.535155,108.730469 244.6875,108.730469 L255.550781,108.730469 C255.703126,108.730469 255.83496,108.674805 255.946289,108.563477 C256.057618,108.452148 256.113281,108.320313 256.113281,108.167969 L256.113281,102.103516 C256.113281,101.951171 256.168945,101.819336 256.280273,101.708008 C256.391602,101.596679 256.523437,101.541016 256.675781,101.541016 Z M257.238281,96.390625 L259.048828,96.390625 C259.212891,96.390625 259.347656,96.4433588 259.453125,96.5488281 C259.558594,96.6542974 259.611328,96.786132 259.611328,96.9443359 C259.611328,97.1025399 259.555665,97.2373041 259.444336,97.3486328 C259.333007,97.4599615 259.201173,97.515625 259.048828,97.515625 L257.238281,97.515625 L257.238281,99.3261719 C257.238281,99.4785164 257.182618,99.610351 257.071289,99.7216797 C256.95996,99.8330084 256.828126,99.8886719 256.675781,99.8886719 C256.523437,99.8886719 256.391602,99.8330084 256.280273,99.7216797 C256.168945,99.610351 256.113281,99.4785164 256.113281,99.3261719 L256.113281,97.515625 L254.285156,97.515625 C254.132812,97.515625 254.000977,97.4628912 253.889648,97.3574219 C253.77832,97.2519526 253.722656,97.1171883 253.722656,96.953125 C253.722656,96.7890617 253.77832,96.6542974 253.889648,96.5488281 C254.000977,96.4433588 254.132812,96.390625 254.285156,96.390625 L256.113281,96.390625 L256.113281,94.5625 C256.113281,94.4101555 256.168945,94.2783209 256.280273,94.1669922 C256.391602,94.0556635 256.523437,94 256.675781,94 C256.828126,94 256.95996,94.0556635 257.071289,94.1669922 C257.182618,94.2783209 257.238281,94.4101555 257.238281,94.5625 L257.238281,96.390625 Z" id="twitter-newmessage"></path>
        </g>
    </g>
</svg>