<?xml version="1.0" encoding="UTF-8"?>
<svg width="16px" height="16px" viewBox="0 0 16 16" version="1.1" xmlns="http://www.w3.org/2000/svg" xmlns:xlink="http://www.w3.org/1999/xlink">
    <!-- Generator: Sketch 44.1 (41455) - http://www.bohemiancoding.com/sketch -->
    <title>twitter-lists</title>
    <desc>Created with Sketch.</desc>
    <defs></defs>
    <g id="Page-1" stroke="none" stroke-width="1" fill="none" fill-rule="evenodd">
        <g id="twitter-newui-iconkit" transform="translate(-443.000000, -94.000000)" fill="#AAB8C3">
            <path d="M446.761719,105.144531 C446.609374,105.144531 446.47754,105.088868 446.366211,104.977539 C446.254882,104.86621 446.199219,104.734376 446.199219,104.582031 C446.199219,104.429687 446.254882,104.297852 446.366211,104.186523 C446.47754,104.075195 446.609374,104.019531 446.761719,104.019531 L450.505859,104.019531 C450.658204,104.019531 450.790039,104.075195 450.901367,104.186523 C451.012696,104.297852 451.068359,104.429687 451.068359,104.582031 C451.068359,104.734376 451.015626,104.86621 450.910156,104.977539 C450.804687,105.088868 450.669923,105.144531 450.505859,105.144531 L446.761719,105.144531 Z M446.761719,102.068359 C446.609374,102.068359 446.47754,102.015626 446.366211,101.910156 C446.254882,101.804687 446.199219,101.669923 446.199219,101.505859 C446.199219,101.341796 446.254882,101.207032 446.366211,101.101562 C446.47754,100.996093 446.609374,100.943359 446.761719,100.943359 L454.25,100.943359 C454.402345,100.943359 454.534179,100.996093 454.645508,101.101562 C454.756836,101.207032 454.8125,101.341796 454.8125,101.505859 C454.8125,101.669923 454.756836,101.804687 454.645508,101.910156 C454.534179,102.015626 454.402345,102.068359 454.25,102.068359 L446.761719,102.068359 Z M446.761719,98.9921875 C446.609374,98.9921875 446.47754,98.936524 446.366211,98.8251953 C446.254882,98.7138666 446.199219,98.582032 446.199219,98.4296875 C446.199219,98.277343 446.254882,98.1455084 446.366211,98.0341797 C446.47754,97.922851 446.609374,97.8671875 446.761719,97.8671875 L454.25,97.8671875 C454.402345,97.8671875 454.534179,97.922851 454.645508,98.0341797 C454.756836,98.1455084 454.8125,98.277343 454.8125,98.4296875 C454.8125,98.582032 454.756836,98.7138666 454.645508,98.8251953 C454.534179,98.936524 454.402345,98.9921875 454.25,98.9921875 L446.761719,98.9921875 Z M444.6875,95.125 C444.535155,95.125 444.403321,95.1806635 444.291992,95.2919922 C444.180664,95.4033209 444.125,95.5351555 444.125,95.6875 L444.125,107.324219 C444.125,107.476563 444.180664,107.608398 444.291992,107.719727 C444.403321,107.831055 444.535155,107.886719 444.6875,107.886719 L456.324219,107.886719 C456.476563,107.886719 456.608398,107.831055 456.719727,107.719727 C456.831055,107.608398 456.886719,107.476563 456.886719,107.324219 L456.886719,95.6875 C456.886719,95.5351555 456.831055,95.4033209 456.719727,95.2919922 C456.608398,95.1806635 456.476563,95.125 456.324219,95.125 L444.6875,95.125 Z M444.6875,109.011719 C444.218748,109.011719 443.820314,108.847658 443.492188,108.519531 C443.164061,108.191405 443,107.792971 443,107.324219 L443,95.6875 C443,95.2187477 443.164061,94.8203141 443.492188,94.4921875 C443.820314,94.1640609 444.218748,94 444.6875,94 L456.324219,94 C456.792971,94 457.191405,94.1640609 457.519531,94.4921875 C457.847658,94.8203141 458.011719,95.2187477 458.011719,95.6875 L458.011719,107.324219 C458.011719,107.792971 457.847658,108.191405 457.519531,108.519531 C457.191405,108.847658 456.792971,109.011719 456.324219,109.011719 L444.6875,109.011719 Z" id="twitter-lists"></path>
        </g>
    </g>
</svg>