<?xml version="1.0" encoding="UTF-8"?>
<svg width="16px" height="16px" viewBox="0 0 16 16" version="1.1" xmlns="http://www.w3.org/2000/svg" xmlns:xlink="http://www.w3.org/1999/xlink">
    <!-- Generator: Sketch 44.1 (41455) - http://www.bohemiancoding.com/sketch -->
    <title>twitter-story</title>
    <desc>Created with Sketch.</desc>
    <defs></defs>
    <g id="Page-1" stroke="none" stroke-width="1" fill="none" fill-rule="evenodd">
        <g id="twitter-newui-iconkit" transform="translate(-443.000000, -44.000000)" fill="#AAB8C3">
            <path d="M446.181641,55.0742188 L449.75,55.0742188 C449.902345,55.0742188 450.034179,55.0185552 450.145508,54.9072266 C450.256836,54.7958979 450.3125,54.6640633 450.3125,54.5117188 C450.3125,54.3593742 450.256836,54.2275396 450.145508,54.1162109 C450.034179,54.0048823 449.902345,53.9492188 449.75,53.9492188 L446.181641,53.9492188 C446.017577,53.9492188 445.882813,54.0048823 445.777344,54.1162109 C445.671874,54.2275396 445.619141,54.3593742 445.619141,54.5117188 C445.619141,54.6640633 445.674804,54.7958979 445.786133,54.9072266 C445.897461,55.0185552 446.029296,55.0742188 446.181641,55.0742188 Z M457.238281,52.0683594 L455.375,52.0683594 L455.375,56.9375 C455.375,57.1953138 455.465819,57.4179678 455.647461,57.6054688 C455.829102,57.7929697 456.048827,57.8867188 456.306641,57.8867188 C456.564454,57.8867188 456.784179,57.7929697 456.96582,57.6054688 C457.147462,57.4179678 457.238281,57.1953138 457.238281,56.9375 L457.238281,52.0683594 Z M446.181641,52.0683594 L452.175781,52.0683594 C452.328126,52.0683594 452.45996,52.0156255 452.571289,51.9101562 C452.682618,51.804687 452.738281,51.6699227 452.738281,51.5058594 C452.738281,51.3417961 452.682618,51.2070318 452.571289,51.1015625 C452.45996,50.9960932 452.328126,50.9433594 452.175781,50.9433594 L446.181641,50.9433594 C446.017577,50.9433594 445.882813,50.9960932 445.777344,51.1015625 C445.671874,51.2070318 445.619141,51.3417961 445.619141,51.5058594 C445.619141,51.6699227 445.671874,51.804687 445.777344,51.9101562 C445.882813,52.0156255 446.017577,52.0683594 446.181641,52.0683594 Z M446.181641,49.0625 L452.175781,49.0625 C452.328126,49.0625 452.45996,49.0068365 452.571289,48.8955078 C452.682618,48.7841791 452.738281,48.6523445 452.738281,48.5 C452.738281,48.3476555 452.682618,48.2158209 452.571289,48.1044922 C452.45996,47.9931635 452.328126,47.9375 452.175781,47.9375 L446.181641,47.9375 C446.029296,47.9375 445.897461,47.9931635 445.786133,48.1044922 C445.674804,48.2158209 445.619141,48.3476555 445.619141,48.5 C445.619141,48.6523445 445.671874,48.7841791 445.777344,48.8955078 C445.882813,49.0068365 446.017577,49.0625 446.181641,49.0625 Z M455.375,50.9433594 L457.800781,50.9433594 C457.953126,50.9433594 458.08496,50.9960932 458.196289,51.1015625 C458.307618,51.2070318 458.363281,51.3417961 458.363281,51.5058594 L458.363281,56.9375 C458.363281,57.5117216 458.164064,58.0009745 457.765625,58.4052734 C457.367186,58.8095723 456.880862,59.0117188 456.306641,59.0117188 L444.6875,59.0117188 C444.218748,59.0117188 443.820314,58.8476579 443.492188,58.5195312 C443.164061,58.1914046 443,57.7929711 443,57.3242188 L443,45.6875 C443,45.2187477 443.164061,44.8203141 443.492188,44.4921875 C443.820314,44.1640609 444.218748,44 444.6875,44 L453.6875,44 C454.156252,44 454.554686,44.1640609 454.882812,44.4921875 C455.210939,44.8203141 455.375,45.2187477 455.375,45.6875 L455.375,50.9433594 Z" id="twitter-story"></path>
        </g>
    </g>
</svg>