<?xml version="1.0" encoding="UTF-8"?>
<svg width="16px" height="15px" viewBox="0 0 16 15" version="1.1" xmlns="http://www.w3.org/2000/svg" xmlns:xlink="http://www.w3.org/1999/xlink">
    <!-- Generator: Sketch 44.1 (41455) - http://www.bohemiancoding.com/sketch -->
    <title>twitter-megaphone</title>
    <desc>Created with Sketch.</desc>
    <defs></defs>
    <g id="Page-1" stroke="none" stroke-width="1" fill="none" fill-rule="evenodd">
        <g id="twitter-newui-iconkit" transform="translate(-244.000000, -144.000000)" fill="#AAB8C3">
            <path d="M251.022461,157.5 C251.461916,157.5 251.833983,157.400392 252.138672,157.201172 C252.443361,157.001952 252.671874,156.744142 252.824219,156.427734 L249.291016,155.267578 C249.267578,155.408204 249.255859,155.531249 249.255859,155.636719 C249.255859,156.152346 249.440428,156.591795 249.80957,156.955078 C250.178713,157.318361 250.583006,157.5 251.022461,157.5 Z M244.755859,148.5 C245.095705,148.5 245.330077,148.675779 245.458984,149.027344 L256.005859,145.529297 L256.005859,157.482422 L254.248047,156.902344 C254.001952,157.523441 253.594729,158.030271 253.026367,158.422852 C252.458005,158.815432 251.828128,159.011719 251.136719,159.011719 C250.210933,159.011719 249.416995,158.680667 248.754883,158.018555 C248.09277,157.356442 247.761719,156.562505 247.761719,155.636719 C247.761719,155.343749 247.796875,155.062501 247.867188,154.792969 L245.458984,153.984375 C245.330077,154.335939 245.095705,154.511719 244.755859,154.511719 C244.544921,154.511719 244.366212,154.438477 244.219727,154.291992 C244.073241,154.145507 244,153.966798 244,153.755859 L244,149.255859 C244,149.044921 244.073241,148.866212 244.219727,148.719727 C244.366212,148.573241 244.544921,148.5 244.755859,148.5 Z M258.255859,144 C258.466798,144 258.645507,144.073241 258.791992,144.219727 C258.938477,144.366212 259.011719,144.544921 259.011719,144.755859 L259.011719,158.255859 C259.011719,158.466798 258.938477,158.645507 258.791992,158.791992 C258.645507,158.938477 258.466798,159.011719 258.255859,159.011719 C258.044921,159.011719 257.866212,158.938477 257.719727,158.791992 C257.573241,158.645507 257.5,158.466798 257.5,158.255859 L257.5,144.755859 C257.5,144.544921 257.573241,144.366212 257.719727,144.219727 C257.866212,144.073241 258.044921,144 258.255859,144 Z" id="twitter-megaphone"></path>
        </g>
    </g>
</svg>