<?xml version="1.0" encoding="UTF-8"?>
<svg width="18px" height="14px" viewBox="0 0 18 14" version="1.1" xmlns="http://www.w3.org/2000/svg" xmlns:xlink="http://www.w3.org/1999/xlink">
    <!-- Generator: Sketch 44.1 (41455) - http://www.bohemiancoding.com/sketch -->
    <title>twitter-retweet</title>
    <desc>Created with Sketch.</desc>
    <defs></defs>
    <g id="Page-1" stroke="none" stroke-width="1" fill="none" fill-rule="evenodd">
        <g id="twitter-newui-iconkit" transform="translate(-42.000000, -145.000000)" fill="#AAB8C3">
            <path d="M59.9648438,154.65918 C59.9648438,154.911134 59.876954,155.124999 59.7011719,155.300781 L57.1699219,157.832031 C56.9941397,158.007813 56.7802747,158.095703 56.5283203,158.095703 C56.2763659,158.095703 56.0625009,158.007813 55.8867188,157.832031 L53.3554688,155.300781 C53.1796866,155.124999 53.0917969,154.911134 53.0917969,154.65918 C53.0917969,154.407225 53.1796866,154.19336 53.3554688,154.017578 C53.5312509,153.841796 53.7451159,153.753906 53.9970703,153.753906 C54.2490247,153.753906 54.4628897,153.841796 54.6386719,154.017578 L55.6230469,155.019531 L55.6230469,147.970703 C55.6230469,147.642576 55.5087902,147.367189 55.2802734,147.144531 C55.0517567,146.921874 54.7792985,146.810547 54.4628906,146.810547 L50.5605469,146.810547 C50.3144519,146.810547 50.1035165,146.722657 49.9277344,146.546875 C49.7519522,146.371093 49.6640625,146.157228 49.6640625,145.905273 C49.6640625,145.653319 49.7519522,145.439454 49.9277344,145.263672 C50.1035165,145.08789 50.3144519,145 50.5605469,145 L54.4628906,145 C55.2832072,145 55.9833955,145.290036 56.5634766,145.870117 C57.1435576,146.450198 57.4335938,147.150387 57.4335938,147.970703 L57.4335938,155.019531 L58.4179688,154.017578 C58.5937509,153.841796 58.8046863,153.753906 59.0507812,153.753906 C59.2968762,153.753906 59.5107413,153.841796 59.6923828,154.017578 C59.8740243,154.19336 59.9648438,154.407225 59.9648438,154.65918 Z M47.5019531,156.285156 L51.4042969,156.285156 C51.6503919,156.285156 51.8613272,156.373046 52.0371094,156.548828 C52.2128915,156.72461 52.3007812,156.938475 52.3007812,157.19043 C52.3007812,157.442384 52.2128915,157.656249 52.0371094,157.832031 C51.8613272,158.007813 51.6503919,158.095703 51.4042969,158.095703 L47.5019531,158.095703 C46.6816365,158.095703 45.9814482,157.805667 45.4013672,157.225586 C44.8212862,156.645505 44.53125,155.945317 44.53125,155.125 L44.53125,148.076172 L43.546875,149.078125 C43.3710929,149.253907 43.1601575,149.341797 42.9140625,149.341797 C42.6679675,149.341797 42.4541025,149.253907 42.2724609,149.078125 C42.0908194,148.902343 42,148.688478 42,148.436523 C42,148.184569 42.0937491,147.970704 42.28125,147.794922 L44.8125,145.263672 C44.9765633,145.08789 45.1845691,145 45.4365234,145 C45.6884778,145 45.9023429,145.08789 46.078125,145.263672 L48.609375,147.794922 C48.7851571,147.970704 48.8730469,148.184569 48.8730469,148.436523 C48.8730469,148.688478 48.7851571,148.902343 48.609375,149.078125 C48.4335929,149.253907 48.2226575,149.341797 47.9765625,149.341797 C47.7304675,149.341797 47.5195321,149.253907 47.34375,149.078125 L46.3417969,148.076172 L46.3417969,155.125 C46.3417969,155.453127 46.4560535,155.728515 46.6845703,155.951172 C46.9130871,156.173829 47.1855453,156.285156 47.5019531,156.285156 Z" id="twitter-retweet"></path>
        </g>
    </g>
</svg>