<?xml version="1.0" encoding="UTF-8"?>
<svg width="15px" height="15px" viewBox="0 0 15 15" version="1.1" xmlns="http://www.w3.org/2000/svg" xmlns:xlink="http://www.w3.org/1999/xlink">
    <!-- Generator: Sketch 44.1 (41455) - http://www.bohemiancoding.com/sketch -->
    <title>twitter-search</title>
    <desc>Created with Sketch.</desc>
    <defs></defs>
    <g id="Page-1" stroke="none" stroke-width="1" fill="none" fill-rule="evenodd">
        <g id="twitter-newui-iconkit" transform="translate(-344.000000, -195.000000)" fill="#AAB8C3">
            <path d="M345.125,201.758789 C345.125,203.311531 345.675776,204.635737 346.777344,205.731445 C347.878912,206.827154 349.206047,207.375 350.758789,207.375 C352.311531,207.375 353.635737,206.827154 354.731445,205.731445 C355.827154,204.635737 356.375,203.311531 356.375,201.758789 C356.375,200.206047 355.827154,198.878912 354.731445,197.777344 C353.635737,196.675776 352.311531,196.125 350.758789,196.125 C349.206047,196.125 347.878912,196.675776 346.777344,197.777344 C345.675776,198.878912 345.125,200.206047 345.125,201.758789 Z M358.818359,209.255859 C358.818359,209.408204 358.765626,209.542968 358.660156,209.660156 C358.531249,209.765626 358.396485,209.818359 358.255859,209.818359 C358.115234,209.818359 357.980469,209.765626 357.851562,209.660156 L355.109375,206.900391 C353.855462,207.966802 352.402352,208.5 350.75,208.5 C348.886709,208.5 347.295905,207.840827 345.977539,206.522461 C344.659173,205.204095 344,203.613291 344,201.75 C344,199.886709 344.659173,198.295905 345.977539,196.977539 C347.295905,195.659173 348.886709,195 350.75,195 C352.613291,195 354.204095,195.659173 355.522461,196.977539 C356.840827,198.295905 357.5,199.886709 357.5,201.75 C357.5,203.402352 356.966802,204.855462 355.900391,206.109375 L358.660156,208.851562 C358.765626,208.968751 358.818359,209.103515 358.818359,209.255859 Z" id="twitter-search"></path>
        </g>
    </g>
</svg>