<?xml version="1.0" encoding="UTF-8"?>
<svg width="15px" height="15px" viewBox="0 0 15 15" version="1.1" xmlns="http://www.w3.org/2000/svg" xmlns:xlink="http://www.w3.org/1999/xlink">
    <!-- Generator: Sketch 44.1 (41455) - http://www.bohemiancoding.com/sketch -->
    <title>twitter-reply</title>
    <desc>Created with Sketch.</desc>
    <defs></defs>
    <g id="Page-1" stroke="none" stroke-width="1" fill="none" fill-rule="evenodd">
        <g id="twitter-newui-iconkit" transform="translate(-94.000000, -94.000000)" fill="#AAB8C3">
            <path d="M108.818359,99.8535156 L108.818359,99.8710938 C108.818359,100.750004 108.616213,101.605465 108.211914,102.4375 C107.807615,103.269535 107.204106,104.025387 106.401367,104.705078 C105.598629,105.384769 103.62111,106.726552 100.46875,108.730469 C100.375,108.789063 100.249024,108.818359 100.09082,108.818359 C99.9326164,108.818359 99.8125004,108.750977 99.7304688,108.616211 C99.6484371,108.481445 99.6074219,108.361329 99.6074219,108.255859 L99.6074219,105.390625 C98.0019451,105.332031 96.666021,104.778326 95.5996094,103.729492 C94.5331978,102.680659 94,101.362313 94,99.7744141 C94,98.1865155 94.565424,96.8271541 95.6962891,95.6962891 C96.8271541,94.565424 98.2128824,94 99.8535156,94 L102.964844,94.0175781 C104.605477,94.0175781 105.991205,94.5800725 107.12207,95.7050781 C108.252935,96.8300838 108.818359,98.2128824 108.818359,99.8535156 Z" id="twitter-reply"></path>
        </g>
    </g>
</svg>