<?xml version="1.0" encoding="UTF-8"?>
<svg width="17px" height="17px" viewBox="0 0 17 17" version="1.1" xmlns="http://www.w3.org/2000/svg" xmlns:xlink="http://www.w3.org/1999/xlink">
    <!-- Generator: Sketch 44.1 (41455) - http://www.bohemiancoding.com/sketch -->
    <title>twitter-cross</title>
    <desc>Created with Sketch.</desc>
    <defs></defs>
    <g id="Page-1" stroke="none" stroke-width="1" fill="none" fill-rule="evenodd">
        <g id="twitter-newui-iconkit" transform="translate(-93.000000, -244.000000)" fill="#AAB8C3">
            <path d="M104.126953,254.564453 C104.126953,254.716798 104.074219,254.851562 103.96875,254.96875 C103.839843,255.074219 103.69922,255.126953 103.546875,255.126953 C103.39453,255.126953 103.265626,255.074219 103.160156,254.96875 L101.068359,252.859375 L98.9765625,254.96875 C98.8476556,255.074219 98.7128913,255.126953 98.5722656,255.126953 C98.4316399,255.126953 98.2968756,255.074219 98.1679688,254.96875 C98.0624995,254.851562 98.0097656,254.716798 98.0097656,254.564453 C98.0097656,254.412109 98.0624995,254.277344 98.1679688,254.160156 L100.277344,252.068359 L98.1855469,249.976562 C98.0683588,249.859374 98.0097656,249.72461 98.0097656,249.572266 C98.0097656,249.419921 98.0654291,249.288086 98.1767578,249.176758 C98.2880865,249.065429 98.4199211,249.009766 98.5722656,249.009766 C98.7246101,249.009766 98.8593744,249.062499 98.9765625,249.167969 L101.068359,251.277344 L103.160156,249.185547 C103.277344,249.068359 103.412109,249.009766 103.564453,249.009766 C103.716798,249.009766 103.848632,249.065429 103.959961,249.176758 C104.07129,249.288086 104.126953,249.419921 104.126953,249.572266 C104.126953,249.72461 104.074219,249.859374 103.96875,249.976562 L101.859375,252.068359 L103.96875,254.160156 C104.074219,254.277344 104.126953,254.412109 104.126953,254.564453 Z M101.068359,245.125 C99.1464748,245.125 97.5087958,245.801751 96.1552734,247.155273 C94.801751,248.508796 94.125,250.146475 94.125,252.068359 C94.125,253.990244 94.801751,255.627923 96.1552734,256.981445 C97.5087958,258.334968 99.1464748,259.011719 101.068359,259.011719 C102.990244,259.011719 104.627923,258.334968 105.981445,256.981445 C107.334968,255.627923 108.011719,253.990244 108.011719,252.068359 C108.011719,250.146475 107.334968,248.508796 105.981445,247.155273 C104.627923,245.801751 102.990244,245.125 101.068359,245.125 Z M101.068359,260.136719 C99.6152271,260.136719 98.2675843,259.776371 97.0253906,259.055664 C95.7831969,258.334957 94.8017614,257.353522 94.0810547,256.111328 C93.360348,254.869134 93,253.521492 93,252.068359 C93,250.615227 93.360348,249.267584 94.0810547,248.025391 C94.8017614,246.783197 95.7831969,245.801761 97.0253906,245.081055 C98.2675843,244.360348 99.6152271,244 101.068359,244 C102.521492,244 103.869134,244.360348 105.111328,245.081055 C106.353522,245.801761 107.334957,246.783197 108.055664,248.025391 C108.776371,249.267584 109.136719,250.615227 109.136719,252.068359 C109.136719,253.521492 108.776371,254.869134 108.055664,256.111328 C107.334957,257.353522 106.353522,258.334957 105.111328,259.055664 C103.869134,259.776371 102.521492,260.136719 101.068359,260.136719 Z" id="twitter-cross"></path>
        </g>
    </g>
</svg>