<?xml version="1.0" encoding="UTF-8"?>
<svg width="12px" height="12px" viewBox="0 0 12 12" version="1.1" xmlns="http://www.w3.org/2000/svg" xmlns:xlink="http://www.w3.org/1999/xlink">
    <!-- Generator: Sketch 44.1 (41455) - http://www.bohemiancoding.com/sketch -->
    <title>twitter-cross-2</title>
    <desc>Created with Sketch.</desc>
    <defs></defs>
    <g id="Page-1" stroke="none" stroke-width="1" fill="none" fill-rule="evenodd">
        <g id="twitter-newui-iconkit" transform="translate(-495.000000, -146.000000)" fill="#AAB8C3">
            <path d="M506.25,156.50293 C506.25,156.708009 506.176759,156.883788 506.030273,157.030273 C505.883788,157.176759 505.708009,157.25 505.50293,157.25 C505.297851,157.25 505.119141,157.173829 504.966797,157.021484 L500.625,152.679688 L496.283203,157.021484 C496.142577,157.173829 495.966798,157.25 495.755859,157.25 C495.544921,157.25 495.366212,157.176759 495.219727,157.030273 C495.073241,156.883788 495,156.708009 495,156.50293 C495,156.297851 495.076171,156.119141 495.228516,155.966797 L499.570312,151.625 L495.228516,147.283203 C495.076171,147.130859 495,146.952149 495,146.74707 C495,146.541991 495.073241,146.366212 495.219727,146.219727 C495.366212,146.073241 495.541991,146 495.74707,146 C495.952149,146 496.130859,146.076171 496.283203,146.228516 L500.625,150.570312 L504.966797,146.228516 C505.119141,146.076171 505.297851,146 505.50293,146 C505.708009,146 505.883788,146.073241 506.030273,146.219727 C506.176759,146.366212 506.25,146.541991 506.25,146.74707 C506.25,146.952149 506.173829,147.130859 506.021484,147.283203 L501.679688,151.625 L506.021484,155.966797 C506.173829,156.119141 506.25,156.297851 506.25,156.50293 Z" id="twitter-cross-2"></path>
        </g>
    </g>
</svg>