<?xml version="1.0" encoding="UTF-8"?>
<svg width="15px" height="15px" viewBox="0 0 15 15" version="1.1" xmlns="http://www.w3.org/2000/svg" xmlns:xlink="http://www.w3.org/1999/xlink">
    <!-- Generator: Sketch 44.1 (41455) - http://www.bohemiancoding.com/sketch -->
    <title>twitter-alert-6</title>
    <desc>Created with Sketch.</desc>
    <defs></defs>
    <g id="Page-1" stroke="none" stroke-width="1" fill="none" fill-rule="evenodd">
        <g id="twitter-newui-iconkit" transform="translate(-193.000000, -145.000000)" fill="#AAB8C3">
            <path d="M195.109375,158.130859 L205.902344,158.130859 C206.171876,158.130859 206.403319,158.034181 206.59668,157.84082 C206.79004,157.64746 206.886719,157.416017 206.886719,157.146484 C206.886719,156.876952 206.79004,156.645509 206.59668,156.452148 C206.403319,156.258788 206.171876,156.162109 205.902344,156.162109 L195.109375,156.162109 C194.839842,156.162109 194.608399,156.258788 194.415039,156.452148 C194.221679,156.645509 194.125,156.876952 194.125,157.146484 C194.125,157.416017 194.221679,157.64746 194.415039,157.84082 C194.608399,158.034181 194.839842,158.130859 195.109375,158.130859 Z M200.505859,147.689453 C199.169915,147.689453 198.030278,148.161128 197.086914,149.104492 C196.14355,150.047856 195.671875,151.187493 195.671875,152.523438 L195.671875,155.037109 L205.339844,155.037109 L205.339844,152.523438 C205.339844,151.187493 204.868169,150.047856 203.924805,149.104492 C202.981441,148.161128 201.841804,147.689453 200.505859,147.689453 Z M206.464844,152.523438 L206.464844,155.125 C206.910158,155.253907 207.279295,155.502928 207.572266,155.87207 C207.865236,156.241213 208.011719,156.68945 208.011719,157.216797 C208.011719,157.744143 207.803713,158.215818 207.387695,158.631836 C206.971678,159.047854 206.476565,159.255859 205.902344,159.255859 L195.109375,159.255859 C194.535153,159.255859 194.040041,159.047854 193.624023,158.631836 C193.208006,158.215818 193,157.744143 193,157.216797 C193,156.68945 193.146483,156.241213 193.439453,155.87207 C193.732423,155.502928 194.10156,155.253907 194.546875,155.125 L194.546875,152.523438 C194.546875,150.988274 195.065425,149.652349 196.102539,148.515625 C197.139654,147.378901 198.419914,146.734376 199.943359,146.582031 L199.943359,146.125 L198.958984,146.125 C198.80664,146.125 198.674805,146.069336 198.563477,145.958008 C198.452148,145.846679 198.396484,145.714845 198.396484,145.5625 C198.396484,145.410155 198.452148,145.278321 198.563477,145.166992 C198.674805,145.055664 198.80664,145 198.958984,145 L202.052734,145 C202.205079,145 202.336914,145.055664 202.448242,145.166992 C202.559571,145.278321 202.615234,145.410155 202.615234,145.5625 C202.615234,145.714845 202.559571,145.846679 202.448242,145.958008 C202.336914,146.069336 202.205079,146.125 202.052734,146.125 L201.068359,146.125 L201.068359,146.599609 C202.591804,146.740235 203.872065,147.378901 204.90918,148.515625 C205.946294,149.652349 206.464844,150.988274 206.464844,152.523438 Z" id="twitter-alert-6"></path>
        </g>
    </g>
</svg>