<?xml version="1.0" encoding="UTF-8"?>
<svg width="15px" height="15px" viewBox="0 0 15 15" version="1.1" xmlns="http://www.w3.org/2000/svg" xmlns:xlink="http://www.w3.org/1999/xlink">
    <!-- Generator: Sketch 44.1 (41455) - http://www.bohemiancoding.com/sketch -->
    <title>twitter-link</title>
    <desc>Created with Sketch.</desc>
    <defs></defs>
    <g id="Page-1" stroke="none" stroke-width="1" fill="none" fill-rule="evenodd">
        <g id="twitter-newui-iconkit" transform="translate(-344.000000, -44.000000)" fill="#AAB8C3">
            <path d="M347.934698,59.0117188 C347.313601,59.0117188 346.72474,58.8710952 346.168097,58.5898438 C345.611453,58.3085923 345.145638,57.9160181 344.770636,57.4121094 C344.126101,56.5331987 343.885869,55.5576225 344.049933,54.4853516 C344.213996,53.4130806 344.729616,52.56055 345.596808,51.9277344 L347.54798,50.4863281 C347.583136,50.8847676 347.682744,51.2773418 347.846808,51.6640625 L346.264776,52.8242188 C345.655398,53.2929711 345.286261,53.9081993 345.157355,54.6699219 C345.051885,55.4433632 345.227665,56.1347626 345.684698,56.7441406 C346.247201,57.5058632 346.997194,57.8867188 347.934698,57.8867188 C348.555795,57.8867188 349.106571,57.6992206 349.587042,57.3242188 L352.241339,55.3730469 C352.850717,54.9277321 353.219854,54.3183632 353.348761,53.5449219 C353.45423,52.7714805 353.278451,52.0800812 352.821417,51.4707031 C352.258914,50.7089806 351.508922,50.328125 350.571417,50.328125 L350.553839,50.328125 C350.477667,49.9999984 350.468878,49.7363291 350.527472,49.5371094 C350.591925,49.3378896 350.624151,49.2265626 350.624151,49.203125 C351.91322,49.2265626 352.950319,49.7597604 353.73548,50.8027344 C354.380014,51.681645 354.620246,52.6513619 354.456183,53.7119141 C354.292119,54.7724662 353.7765,55.6308561 352.909308,56.2871094 L350.272589,58.2382812 C349.581179,58.7539088 348.80189,59.0117188 347.934698,59.0117188 Z M355.001105,44 C355.622201,44 356.211063,44.1406236 356.767706,44.421875 C357.32435,44.7031264 357.790165,45.0957006 358.165167,45.5996094 C358.809702,46.47852 359.049934,47.4540962 358.88587,48.5263672 C358.721807,49.5986382 358.206187,50.4511687 357.338995,51.0839844 L355.387823,52.5253906 C355.352667,52.1269511 355.253059,51.7343769 355.088995,51.3476562 L356.671026,50.1875 C357.280404,49.7187477 357.649541,49.1035194 357.778448,48.3417969 C357.883918,47.5800743 357.708138,46.888675 357.251105,46.2675781 C356.688602,45.5058556 355.938609,45.125 355.001105,45.125 C354.391727,45.125 353.835091,45.3124981 353.331183,45.6875 L350.694464,47.6386719 C350.085086,48.0839866 349.721808,48.6933555 349.60462,49.4667969 C349.487432,50.2402382 349.657352,50.9316376 350.114386,51.5410156 C350.676889,52.3027382 351.426881,52.6835938 352.364386,52.6835938 L352.381964,52.6835938 C352.440558,52.9296887 352.461066,53.1259758 352.443487,53.2724609 C352.425909,53.418946 352.381964,53.5976552 352.311651,53.8085938 C351.702273,53.7968749 351.122201,53.650392 350.571417,53.3691406 C350.020633,53.0878892 349.563606,52.7011743 349.200323,52.2089844 C348.555789,51.3300737 348.315557,50.3603569 348.47962,49.2998047 C348.643684,48.2392525 349.159303,47.3808627 350.026495,46.7246094 L352.663214,44.7734375 C353.354624,44.2578099 354.133913,44 355.001105,44 Z" id="twitter-link"></path>
        </g>
    </g>
</svg>