<?xml version="1.0" encoding="UTF-8"?>
<svg width="16px" height="16px" viewBox="0 0 16 16" version="1.1" xmlns="http://www.w3.org/2000/svg" xmlns:xlink="http://www.w3.org/1999/xlink">
    <!-- Generator: Sketch 44.1 (41455) - http://www.bohemiancoding.com/sketch -->
    <title>twitter-lock</title>
    <desc>Created with Sketch.</desc>
    <defs></defs>
    <g id="Page-1" stroke="none" stroke-width="1" fill="none" fill-rule="evenodd">
        <g id="twitter-newui-iconkit" transform="translate(-244.000000, -244.000000)" fill="#AAB8C3">
            <path d="M252.068359,255.478516 L252.068359,254.423828 C252.36133,254.30664 252.598632,254.119142 252.780273,253.861328 C252.961915,253.603514 253.052734,253.287111 253.052734,252.912109 C253.052734,252.537107 252.900392,252.200197 252.595703,251.901367 C252.291014,251.602538 251.924807,251.453125 251.49707,251.453125 C251.069334,251.453125 250.706056,251.602538 250.407227,251.901367 C250.108397,252.200197 249.958984,252.540037 249.958984,252.920898 C249.958984,253.30176 250.049804,253.621092 250.231445,253.878906 C250.413087,254.13672 250.650389,254.318359 250.943359,254.423828 L250.943359,255.478516 C250.943359,255.63086 250.996093,255.762695 251.101562,255.874023 C251.207032,255.985352 251.341796,256.041016 251.505859,256.041016 C251.669923,256.041016 251.804687,255.985352 251.910156,255.874023 C252.015626,255.762695 252.068359,255.63086 252.068359,255.478516 Z M251.505859,245.125 C250.650386,245.125 249.909183,245.417966 249.282227,246.003906 C248.65527,246.589847 248.306641,247.304683 248.236328,248.148438 L254.775391,248.148438 C254.705078,247.304683 254.356448,246.589847 253.729492,246.003906 C253.102536,245.417966 252.361332,245.125 251.505859,245.125 Z M257.324219,248.148438 C257.792971,248.148438 258.191405,248.312498 258.519531,248.640625 C258.847658,248.968752 259.011719,249.367185 259.011719,249.835938 L259.011719,257.5 C259.011719,257.968752 258.847658,258.367186 258.519531,258.695312 C258.191405,259.023439 257.792971,259.1875 257.324219,259.1875 L245.6875,259.1875 C245.218748,259.1875 244.820314,259.023439 244.492188,258.695312 C244.164061,258.367186 244,257.968752 244,257.5 L244,249.835938 C244,249.367185 244.164061,248.968752 244.492188,248.640625 C244.820314,248.312498 245.218748,248.148438 245.6875,248.148438 L247.111328,248.148438 C247.181641,246.988275 247.641597,246.00684 248.491211,245.204102 C249.340825,244.401363 250.348627,244 251.514648,244 C252.68067,244 253.685543,244.401363 254.529297,245.204102 C255.373051,246.00684 255.830078,246.988275 255.900391,248.148438 L257.324219,248.148438 Z" id="twitter-lock"></path>
        </g>
    </g>
</svg>