<?xml version="1.0" encoding="UTF-8"?>
<svg width="16px" height="16px" viewBox="0 0 16 16" version="1.1" xmlns="http://www.w3.org/2000/svg" xmlns:xlink="http://www.w3.org/1999/xlink">
    <!-- Generator: Sketch 44.1 (41455) - http://www.bohemiancoding.com/sketch -->
    <title>twitter-attach</title>
    <desc>Created with Sketch.</desc>
    <defs></defs>
    <g id="Page-1" stroke="none" stroke-width="1" fill="none" fill-rule="evenodd">
        <g id="twitter-newui-iconkit" transform="translate(-343.000000, -94.000000)" fill="#AAB8C3">
            <path d="M348.868811,96.1621094 C349.032875,96.1621094 349.167639,96.2060542 349.273108,96.2939453 C349.378577,96.3818364 349.4401,96.504882 349.457679,96.6630859 C349.475257,96.8212899 349.437171,96.9589838 349.343421,97.0761719 L344.843421,102.753906 C344.280918,103.468754 344.052405,104.27441 344.157874,105.170898 C344.263343,106.067387 344.673495,106.799802 345.388343,107.368164 C346.10319,107.936526 346.914705,108.167969 347.822913,108.0625 C348.731121,107.957031 349.460605,107.546879 350.011389,106.832031 L356.726233,98.3769531 C357.066079,97.9433572 357.203773,97.4511746 357.139319,96.9003906 C357.074866,96.3496066 356.825845,95.9013689 356.392249,95.5556641 C355.958653,95.2099592 355.46647,95.0693356 354.915686,95.1337891 C354.364902,95.1982425 353.919594,95.4472635 353.579749,95.8808594 L347.814124,103.140625 C347.685217,103.29297 347.635413,103.471679 347.66471,103.676758 C347.694007,103.881837 347.784826,104.042968 347.937171,104.160156 C348.089515,104.277344 348.268224,104.324219 348.473304,104.300781 C348.678383,104.277344 348.839514,104.189454 348.956702,104.037109 L352.648108,99.3789062 C352.765296,99.2265617 352.897131,99.1503906 353.043616,99.1503906 C353.190101,99.1503906 353.321936,99.1943355 353.439124,99.2822266 C353.556312,99.3701176 353.623694,99.4931633 353.641272,99.6513672 C353.65885,99.8095711 353.620765,99.947265 353.527014,100.064453 L349.835608,104.722656 C349.5192,105.121096 349.106119,105.352539 348.59635,105.416992 C348.086582,105.481446 347.632485,105.352541 347.234046,105.030273 C346.835606,104.708006 346.607093,104.294924 346.548499,103.791016 C346.489905,103.287107 346.61881,102.835939 346.935218,102.4375 L352.683264,95.1777344 C353.327799,94.3925742 354.148103,94 355.144202,94 C355.859049,94 356.509433,94.222654 357.095374,94.6679688 C357.775065,95.2070339 358.164709,95.9072223 358.264319,96.7685547 C358.363929,97.6298871 358.144205,98.4003872 357.605139,99.0800781 L350.890296,107.535156 C350.128573,108.48438 349.144208,109.035155 347.937171,109.1875 C346.694977,109.316407 345.611003,109.005863 344.685218,108.255859 C343.724275,107.505856 343.1735,106.52149 343.032874,105.302734 C342.892248,104.083978 343.202792,103.000005 343.964514,102.050781 L348.464514,96.3730469 C348.569984,96.2324212 348.704748,96.1621094 348.868811,96.1621094 Z" id="twitter-attach"></path>
        </g>
    </g>
</svg>