<?xml version="1.0" encoding="UTF-8"?>
<svg width="14px" height="15px" viewBox="0 0 14 15" version="1.1" xmlns="http://www.w3.org/2000/svg" xmlns:xlink="http://www.w3.org/1999/xlink">
    <!-- Generator: Sketch 44.1 (41455) - http://www.bohemiancoding.com/sketch -->
    <title>twitter-location-2</title>
    <desc>Created with Sketch.</desc>
    <defs></defs>
    <g id="Page-1" stroke="none" stroke-width="1" fill="none" fill-rule="evenodd">
        <g id="twitter-newui-iconkit" transform="translate(-194.000000, -195.000000)" fill="#AAB8C3">
            <path d="M200.521484,204 C201.248051,204 201.866208,203.74219 202.375977,203.226562 C202.885745,202.710935 203.140625,202.092777 203.140625,201.37207 C203.140625,200.651364 202.885745,200.033206 202.375977,199.517578 C201.866208,199.001951 201.248051,198.744141 200.521484,198.744141 C199.794918,198.744141 199.17676,199.001951 198.666992,199.517578 C198.157224,200.033206 197.902344,200.651364 197.902344,201.37207 C197.902344,202.092777 198.157224,202.710935 198.666992,203.226562 C199.17676,203.74219 199.794918,204 200.521484,204 Z M200.521484,195 C202.314462,195 203.849603,195.635736 205.126953,196.907227 C206.404303,198.178717 207.042969,199.710929 207.042969,201.503906 C207.042969,202.968757 206.60352,204.275385 205.724609,205.423828 C205.232419,206.074222 204.289069,206.997064 202.894531,208.192383 C202.519529,208.51465 202.194337,208.787108 201.918945,209.009766 C201.643553,209.232423 201.400392,209.43164 201.189453,209.607422 L200.873047,209.871094 C200.779296,209.953125 200.66211,209.994141 200.521484,209.994141 C200.380859,209.994141 200.263672,209.953125 200.169922,209.871094 L199.853516,209.607422 C199.642577,209.43164 199.399415,209.232423 199.124023,209.009766 C198.46777,208.47656 197.752934,207.858402 196.979492,207.155273 C196.206051,206.446286 195.652345,205.875002 195.318359,205.441406 C194.439449,204.281244 194,202.968757 194,201.503906 C194,199.710929 194.638665,198.178717 195.916016,196.907227 C197.193366,195.635736 198.728507,195 200.521484,195 Z" id="twitter-location-2"></path>
        </g>
    </g>
</svg>